<svg xmlns="http://www.w3.org/2000/svg" viewBox="0 0 408.4 132.1" width="35em"><path d="M9 96l29 1 1 22-29 2" fill="#f41d92"></path><path d="M12 97c9 0 18 2 26 1m-28 0c11-2 22-1 28-1m-1 0c-1 9 1 18-1 21m2-21v22m1 2c-9-3-18-1-31-2m30 1l-29-1m0 1c-1-6 1-10 1-22m0 22c1-8 0-14-1-23" stroke="currentColor" fill="none"></path><path d="M101 99l28 1v21l-26-1" fill="#fc54ee"></path><path d="M101 100c10-2 23-1 29 1m-28-2l27 1m0-3c1 8 1 11-1 23m1-21l-1 22m2 0l-29-1m29 1h-29m1-2c-1-5 0-13 1-20m-1 23l-1-23" stroke="currentColor" fill="none"></path><path d="M234 99l29-1-2 25h-29" fill="#e08fff"></path><path d="M234 98c5 2 12 2 29 0m-29 0h28m-3 1c3 5 0 8 1 23m1-24v23m0-1c-9 2-15 1-29 0m29 1h-28m-2 0c3-6 2-13 3-24m0 24l-1-23" stroke="currentColor" fill="none"></path><path d="M199 99l27-1 2 20-27 3" fill="#f071ff"></path><path d="M198 97c14 1 24 3 28 0m-28 1c9 0 16 1 28-1m1 2v20m-1-21l1 22m-2-1c-8 0-18 0-27 2m29-2l-28 2m0 0c1-7 1-12-2-24m2 23c1-8 0-15-1-22" stroke="currentColor" fill="none"></path><path d="M73 99l26 2-2 22-25-3" fill="#f938c5"></path><path d="M70 101l28-3m-26 1c10 1 21 0 26-1m2 2c-3 5-3 14-2 22m1-23c1 7 0 15-1 23m-1 0c-10-1-20-2-25 0m26-1H71m1 2c-1-8 0-19-2-23m1 22V99" stroke="currentColor" fill="none"></path><path d="M267 98l30-2v25l-31-2" fill="#daaeff"></path><path d="M269 98c9 2 17-1 25 1m-26-1h26m2-2c-2 5 0 10 0 25m-1-22c-1 6 0 13 1 22m0-2c-9-1-18 2-28 2m27-1c-7-1-15 0-28 1m2-1c0-4-3-10-1-20m0 20V99" stroke="currentColor" fill="none"></path><path d="M72 9l91 1 1 39-93 3" fill="#ced4da"></path><path d="M74 12l90-2m-92 0l92-1m1 1c1 17-1 31-3 41m2-41v41m1 0c-21-2-43-1-92-2m91 1c-26 2-53 0-93 1m2-2c-1-10-3-24-2-37m1 39V11" stroke="transparent" fill="none"></path><path d="M258 12l90 2 1 38-94 1" fill="#ced4da"></path><path d="M257 11c32 1 67 2 93 0m-3 1l4 43m-2-1c-35 0-70-3-92 1m2-2c-4-11-2-17-1-42" stroke="transparent" stroke-width="1.5" fill="none" stroke-dasharray="3 6"></path><path d="M79 20l34-1v27H80" fill="#f41d92"></path><path d="M78 20l34-1m-32-1c12 2 21 1 31 0m0 1c0 10 1 15-1 26m1-25v24m0-2c-10 2-20 1-31 1m31 1c-12 1-22-1-32 1m0 0c3-10 0-22-1-27m3 26l-1-25" stroke="currentColor" fill="none"></path><path d="M120 21l32 1 2 22-31 2" fill="#fc54ee"></path><path d="M121 20c7-1 16 1 31 1m-30-1h30m2-2c-1 7-3 13 0 28m-1-27v25m-2-1c-4 3-12 2-31 2m32 0l-31 1m2-2l-2-23m0 23l1-25" stroke="currentColor" fill="none"></path><g><path d="M264 18l29-1 1 28-31-3" fill="#f071ff"></path><path d="M264 17c5 3 15 1 29 1m-31 0c10 0 21 0 32 2m0 1c0 3-1 10 1 23m-1-26v27m0-3c-9 3-19 0-31 0m30 1l-31 2m0 0l3-25m-3 25c2-10 0-21 0-26" stroke="currentColor" fill="none"></path></g><g><path d="M308 21h29l1 24-28 1" fill="#daaeff"></path><path d="M309 19c8 2 14 1 30 2m-32-1h33m1 1c-3 6-1 10-1 24m0-24v24m-2-1c-12 2-22 1-31 0m31 3c-9-2-20-1-30-2m1 2c-1-8-2-17-1-26m-1 24c2-8 1-16 1-25" stroke="currentColor" fill="none"></path></g><g><path d="M42 101h26l-2 21-25 1" fill="#fc54ee"></path><path d="M41 102c6-2 12-1 28-4m-30 3c10-2 20-1 29-1m-2 1l3 23m-2-25v22m2 1c-11-1-22 1-31-1m30 1l-29-1m0 3c-1-9 0-15 1-26m0 25l-1-22" stroke="currentColor" fill="none"></path></g><g><path d="M131 97h28v23l-24-2" fill="#f41d92"></path><path d="M133 97c8-1 12-1 28 1m-28 0l27-1m2 2c-3 8 0 17 1 21m-3-22l1 21m-1 0c-7-1-18-1-25 2m26 0h-28m-1 0c0-6 1-12-1-21m2 20V99" stroke="currentColor" fill="none"></path></g><g><path d="M166 100l26-2 1 24-27-1" fill="#fc54ee"></path><path d="M164 98l30-1m-29 1l26 1m0 0c2 7 1 10-1 21m2-22l1 24m0 1c-9 0-14-3-27-1m27-1l-29-1m0 1c0-5 2-15 0-22m1 22l-1-22" stroke="currentColor" fill="none"></path></g><g><path d="M337 99l26 1 1 20-25-1" fill="#e08fff"></path><path d="M337 98c7 1 14-1 26 1m-26-2c8 2 17 0 27 1m0 0c2 6-1 13 1 20m-1-21v24m0 0l-27 1m27-1c-9 0-18 0-27-2m1 0c-1-8 0-13-3-20m2 22l-1-23" stroke="currentColor" fill="none"></path></g><g><path d="M303 96l29 1-3 25-29-1" fill="#f071ff"></path><path d="M302 96l29 1m-29 1h28m0 1l-2 21m1-23l1 23m0 2c-10-1-21-2-26-1m26-2l-29 1m-1 1c0-9 2-20 3-23m0 22l-1-22" stroke="currentColor" fill="none"></path></g><g><path d="M369 99l29-2 2 21-28 1" fill="#daaeff"></path><path d="M370 99c8-2 18 0 28-1m-27 0l28-1m1-1c-3 8-1 17-1 25m-1-23l1 23m1 0c-9 0-19 0-28-2m26 1c-8 0-17-1-27 1m0-3c1-4-2-10 0-22m0 25V98" stroke="currentColor" fill="none"></path></g><g><path d="M20 88c0-4-14-18-1-20 14-1 67 12 82 11 16-1 7-17 9-16 2 0-8 16 3 18 11 1 49-11 61-9 12 3 9 19 11 22M19 87c0-3-15-20-1-21 15-1 70 15 86 15 15-1 5-18 7-18 1 0-7 17 4 18 11 2 48-11 60-9s8 17 10 21" stroke="#ced4da" fill="none"></path></g><g><path d="M214 88c0-3-15-16 0-17s73 11 90 10c16-1 5-16 7-16 1 0-8 17 4 19 12 1 54-12 66-10s7 18 8 22m-174-5c0-4-17-20-2-22 14-1 74 14 90 14 17-1 6-18 8-17 1 0-9 17 3 18 11 1 53-12 65-11 13 2 8 18 10 22" stroke="#ced4da" fill="none"></path></g></svg>
