<svg xmlns="http://www.w3.org/2000/svg" viewBox="0 0 238.1 229.4" width="20em"><path d="M158 192l32-4v29l-31-1" fill="#f41d92"></path><path d="M158 191c6-2 16 1 31 1m-31-2h31m0 2c-2 5-1 12 1 24m-1-26l-1 26m2-2c-9 0-18 3-34 4m34-3h-33m0 1c2-7-1-14 2-26m-2 25c2-5 1-9 0-25" stroke="currentColor" fill="none"></path><path d="M47 195h28l3 25-33-1" fill="#fc54ee"></path><path d="M46 193c9 2 23 1 32 0m-33 0c10 2 20 1 31 1m3-2c-2 10-2 21-2 28m0-27v26m-2 0c-12-1-20-1-27 1m28-1H45m1 2l-1-29m0 28v-26" stroke="currentColor" fill="none"></path><path d="M11 192l31 3v24H10" fill="#e08fff"></path><path d="M9 193c10 3 18 2 31 1m-31-1l32 2m-2-1l3 25m-2-26l1 27m-1-2c-8 3-17 3-29 1m30 1l-31-2m1 2c-3-8 0-16-3-26m3 25c0-8-2-17-1-24" stroke="currentColor" fill="none"></path><path d="M120 191h35l-2 24-31-1" fill="#f071ff"></path><path d="M121 191l33-2m-32 2h32m-1-1v26m0-26l1 25m-2-1c-9 0-20 2-31 1m33 0l-33 1m2-2l-1-23m0 25l1-25" stroke="currentColor" fill="none"></path><path d="M198 191l31-1-1 25-32 2" fill="#f938c5"></path><path d="M198 192l29-1m-29-1h31m-2 0c2 11 2 20 2 25m-1-24v25m-1 1c-7 0-12-3-31 0m32-1l-31-1m-2 1c3-9 0-16 3-28m-1 28v-27" stroke="currentColor" fill="none"></path><path d="M86 193l29-1v24l-29 3" fill="#daaeff"></path><path d="M86 192c7-2 14-1 30 0m-32 0c7-1 16 1 32 1m0 0l-1 24m1-26v26m1-1c-8 2-19 1-31 0m30 1H84m1 1l-2-28m2 26c-1-9 0-18-2-24M118 32l27 28m-29-29l28 27M165 81l29 27m-27-27l26 28M59 83l-19 24m18-25l-19 24M153 81l-18 24m17-25l-17 26M76 81l15 24M75 81l15 26M106 37L81 52m25-16L80 53" stroke="currentColor" fill="none"></path><path d="M18 105l31-1 1 27-32-3" fill="#f41d92"></path><path d="M18 103c8 2 19 1 31 0m-31 2l31-2m0 1c-2 11-1 21 2 25m-3-26c2 9 1 17 1 26m-1 2l-31-3m32 1H17m1-1c-1-8 2-13-1-22m0 24l1-25" stroke="currentColor" fill="none"></path><path d="M78 106h31l2 25-35-1" fill="#fc54ee"></path><path d="M76 105c15 2 26 1 31 1m-29 0l30 1m0-3c2 6 2 14 0 28m0-26l1 25m1-1c-10 2-20 0-34 1m33 0H77m-1 0c1-6 4-16 4-25m-2 25v-25" stroke="currentColor" fill="none"></path><path d="M95 10l31 2-1 22-32 1" fill="#fc54ee"></path><path d="M94 11l32-2m-31 1l32-1m-3 2c1 9 3 17 2 26m1-27c-2 8-1 16-1 25m-1 2c-7-1-18-3-31-3m32 1H95m-1-1c3-2 0-7 1-23m-1 24l1-25" stroke="currentColor" fill="none"></path><g><path d="M120 106l33-1-4 24-30 2" fill="#e08fff"></path><path d="M120 106c9-1 17-1 29 1m-29-2l30 1m2-2c-1 10-2 16 0 27m-2-26l1 25m1 1c-8-2-18-1-34 0m33 0c-9-1-17 0-32-2m-1 3c4-10 4-16 3-26m-2 24l1-25" stroke="currentColor" fill="none"></path></g><g><path d="M144 59l30-4-1 27-29-2" fill="#f071ff"></path><path d="M144 57c7-2 14-2 32-1m-32 1h31m-2 0c3 6 2 15 2 24m-1-25v25m1 2c-13-2-24-2-31-2m31 1h-33m3 2c-3-5-2-11 0-29m-3 27l1-25" stroke="currentColor" fill="none"></path></g><g><path d="M54 55l28-2 1 28-32-2" fill="#f938c5"></path><path d="M52 55c7 0 16 2 31 1m-30-1h31m0 1c-1 5 1 10-2 23m1-24v26m1-2c-10 1-18 2-32 1m31 0c-10 1-20 0-31-1m2 0c1-6 0-11-3-23m1 24l1-25" stroke="currentColor" fill="none"></path></g><g><path d="M178 104l30 2 2 24-33 3" fill="#daaeff"></path><path d="M179 105l32 1m-33-1h31m2 0l-3 28m1-27l1 25m-2-1l-30 2m31-1h-32m1 2l1-28m0 27v-25" stroke="currentColor" fill="none"></path></g><g><path d="M37 140l145 43M36 139l145 43M151 184c13-1 23-4 32-4m-33 4l31-2M157 164l26 16m-27-16l25 18" stroke="currentColor" fill="none"></path></g><g><path d="M88 141l-24 46m23-47l-23 46M67 161l-5 26m5-28c-1 9-3 16-3 27M83 169l-21 18m21-20l-19 19" stroke="currentColor" fill="none"></path></g><g><path d="M140 142L20 185m119-44L19 186M43 167c-10 5-16 12-23 19m21-19l-22 18" stroke="currentColor" fill="none"></path><path d="M50 187c-13-3-21-3-30-1m28 0c-7 0-15 1-29-1" stroke="currentColor" fill="none"></path></g><g><path d="M197 145L91 185m105-40L90 186M113 166l-23 20m23-19l-24 19M121 185c-12 3-21 3-31 1m30 0H89" stroke="currentColor" fill="none"></path></g></svg>