<svg xmlns="http://www.w3.org/2000/svg" viewBox="0 0 370 138.4" width="30em"><path d="M42 120l318-1m-316 0l315-1M332 129l27-12m-28 12l29-11M332 108c9 3 15 8 27 9m-28-9l29 10" stroke="currentColor" fill="none"></path><path d="M48 90l15 4-1 18-14 2" fill="#f41d92"></path><path d="M48 91h15m-14 2h14m-1-2c1 5-1 9 1 20m-1-19l1 20m-1 0c-2 2-8 1-12-1m12 2H48m0 1c0-11-2-16 2-22m-2 20V92" stroke="currentColor" fill="none"></path><path d="M65 90l18-1-2 24H69" fill="#f41d92"></path><path d="M66 90h14m-12 0l13-1m-2 1v23m2-24l-1 24m0 1l-14-1m15 0c-3-1-7 0-14 1m2-2c-4-6-1-8-2-21m0 22V89" stroke="currentColor" fill="none"></path><path d="M88 32l13-2v84l-14-1" fill="#f41d92"></path><path d="M88 31c4 0 11-1 14 1m-15-1l14-1m2 0c-2 16-1 33-2 83m1-83l-1 82m2 1c-7-1-11-2-16-1m15 1l-14-1m-2-1c-1-25 3-53 2-79m-1 81V30" stroke="currentColor" fill="none"></path><path d="M108 89l12 1 2 20-14 2" fill="#f41d92"></path><path d="M106 89h16m-15 1l13-1m0 0c-1 8-1 12 1 20m-1-18v20m2-1c-6 2-11 0-16 1m15-1l-15 1m-1-3c2-1 1-8 3-19m-1 22c0-7 0-13-2-21" stroke="currentColor" fill="none"></path><path d="M125 87l14 2v23l-12-1" fill="#f41d92"></path><path d="M125 87c3-1 7 1 13 1m-12-1h12m0-1c2 5 1 12 0 25m2-24v24m-1 0l-13-1m12 1h-12m-3 0c4-10 4-17 2-24m1 24V88" stroke="currentColor" fill="none"></path><path d="M143 94h14v18l-13-3" fill="#f41d92"></path><path d="M144 94c3 0 10-1 12 1m-12-1h11m-1 1c0 5 2 10 1 15m1-16l-1 16m0 2h-12m13-1h-12m0 2V93m0 17V94" stroke="currentColor" fill="none"></path><path d="M159 93h12l1 19h-14" fill="#f41d92"></path><path d="M160 91l12 1m-12 0h10m2-2c-2 8-2 12-2 22m1-21c0 5 1 11-1 21m2-2l-12 2m11-1h-11m1 0l-3-20m1 20V91" stroke="currentColor" fill="none"></path><path d="M197 87l13 2-1 20h-13" fill="#f41d92"></path><path d="M194 88c6-2 9 0 16 0m-15-1h14m-2 0c2 5 1 12 2 23m-1-23l2 25m-2-1l-12 1m13 0l-14-2m0 2c1-6 0-12-1-23m1 22V87" stroke="currentColor" fill="none"></path><path d="M213 95h14l-3 17-12 1" fill="#f41d92"></path><path d="M214 95h12m-13-1h12m0 1v17m0-18l1 17m-1 0l-11-1m12 1h-13m2 1c-2-6-3-13 0-16m-2 14V95" stroke="currentColor" fill="none"></path><path d="M230 93l11-3v20l-10 2" fill="#f41d92"></path><path d="M230 91c3 2 7 1 11 1m-12-1h11m1 0c-1 7 0 14 1 21m-2-19v19m0 0h-12m12 0h-11m2-1c-2-9-3-14 0-19m-3 20c2-5 1-10 2-20" stroke="currentColor" fill="none"></path><path d="M247 88h11v25l-11-3" fill="#f41d92"></path><path d="M245 88h15m-14 0h13m0 0l1 24m1-24c-2 6-1 10-1 25m0-2c-3 1-6-1-13 1m13-1l-14 1m-1-1c-1-7 2-11 2-25m-1 26V88" stroke="currentColor" fill="none"></path><path d="M265 93h12l1 19-15 1" fill="#f41d92"></path><path d="M265 96l12-1m-13-1h13m-1 0v16m0-16l1 17m-2 1h-10m11 0h-11m-1-2c0-3 2-10-1-15m2 16V95" stroke="currentColor" fill="none"></path><g><path d="M279 93l11 1 2 17-10 3" fill="#f41d92"></path><path d="M281 93c4 0 8 0 11-2m-12 2l11-1m0 0c0 8 1 14-1 19m1-18c2 4 1 10 0 19m1 0c-3-1-6 0-11 1m11-1h-12m-1-1c3-5 2-15 2-19m-1 20l1-19" stroke="currentColor" fill="none"></path></g><g><path d="M298 34l16 3-3 76-12-1" fill="#f41d92"></path><path d="M298 37l13-2m-13 1l14 1m0-1c2 20 0 36-1 74m2-73l-1 74m1 1c-7 0-11 0-14-2m13 1l-14 1m-1 1c2-21-1-41 0-79m0 77l1-76" stroke="currentColor" fill="none"></path></g><g><path d="M177 9l15 2-1 100-14-1" fill="#f41d92"></path><path d="M176 10l14-1m-15 1h15m1 0c-2 31-2 65-1 100m1-99l-1 101m1-1l-15 2m15-1l-15-1m0-1c0-25-3-50 2-101m-2 103c1-29-1-58-1-101" stroke="currentColor" fill="none"></path></g><g><path d="M12 115l-1 12m3-13l-4 11" stroke="currentColor" fill="none"></path></g><g><path d="M15 115l7 13m-9-11l11 10" stroke="currentColor" fill="none"></path></g><g><path d="M21 123H10m11 0H10" stroke="currentColor" fill="none"></path></g><g><path d="M27 114l-1 14m3-15l-1 13" stroke="currentColor" fill="none"></path></g><g><path d="M27 114l5 7m-4-5l3 7" stroke="currentColor" fill="none"></path></g><g><path d="M36 115l-3 4m2-4l-2 5" stroke="currentColor" fill="none"></path></g><g><path d="M34 118l3 7m-2-8l4 6" stroke="currentColor" fill="none"></path></g><g><path d="M94 115l1 11m-1-11l1 11" stroke="currentColor" fill="none"></path></g><g><path d="M184 114v11m0-11v11" stroke="currentColor" fill="none"></path></g><g><path d="M305 114l1 11m-1-11l1 11" stroke="currentColor" fill="none"></path></g></svg>