<?xml version="1.0" standalone="no"?>
<!DOCTYPE svg PUBLIC "-//W3C//DTD SVG 1.1//EN" "http://www.w3.org/Graphics/SVG/1.1/DTD/svg11.dtd">
<svg version="1.1" xmlns="http://www.w3.org/2000/svg" viewBox="0 0 88.31684981684975 72.42632118529008" width="88.31684981684975" height="72.42632118529008"><!-- svg-source:excalidraw --><metadata></metadata><defs><style class="style-fonts">
      </style></defs><rect x="0" y="0" width="88.31684981684975" height="72.42632118529008" fill="#ffffff"></rect><g stroke-linecap="round" transform="translate(15.545308854368159 10) rotate(0 29.07051933023172 19.380346220154507)"><path d="M9.69 0 C19.99 0, 30.29 0, 48.45 0 C54.91 0, 58.14 3.23, 58.14 9.69 C58.14 15.31, 58.14 20.94, 58.14 29.07 C58.14 35.53, 54.91 38.76, 48.45 38.76 C33.42 38.76, 18.38 38.76, 9.69 38.76 C3.23 38.76, 0 35.53, 0 29.07 C0 22.82, 0 16.57, 0 9.69 C0 3.23, 3.23 0, 9.69 0" stroke="none" stroke-width="0" fill="#ced4da"></path><path d="M9.69 0 C20.42 0, 31.16 0, 48.45 0 M9.69 0 C22.62 0, 35.56 0, 48.45 0 M48.45 0 C54.91 0, 58.14 3.23, 58.14 9.69 M48.45 0 C54.91 0, 58.14 3.23, 58.14 9.69 M58.14 9.69 C58.14 15.83, 58.14 21.96, 58.14 29.07 M58.14 9.69 C58.14 17.13, 58.14 24.58, 58.14 29.07 M58.14 29.07 C58.14 35.53, 54.91 38.76, 48.45 38.76 M58.14 29.07 C58.14 35.53, 54.91 38.76, 48.45 38.76 M48.45 38.76 C35.94 38.76, 23.42 38.76, 9.69 38.76 M48.45 38.76 C33.99 38.76, 19.52 38.76, 9.69 38.76 M9.69 38.76 C3.23 38.76, 0 35.53, 0 29.07 M9.69 38.76 C3.23 38.76, 0 35.53, 0 29.07 M0 29.07 C0 24.08, 0 19.08, 0 9.69 M0 29.07 C0 23.04, 0 17.02, 0 9.69 M0 9.69 C0 3.23, 3.23 0, 9.69 0 M0 9.69 C0 3.23, 3.23 0, 9.69 0" stroke="#343a40" stroke-width="2" fill="none"></path></g><g stroke-linecap="round" transform="translate(10 53.07496531682409) rotate(0 34.15842490842488 4.6756779342329935)"><path d="M2.34 0 C25.36 0, 48.38 0, 65.98 0 C67.54 0, 68.32 0.78, 68.32 2.34 C68.32 4.01, 68.32 5.68, 68.32 7.01 C68.32 8.57, 67.54 9.35, 65.98 9.35 C43.3 9.35, 20.63 9.35, 2.34 9.35 C0.78 9.35, 0 8.57, 0 7.01 C0 5.65, 0 4.28, 0 2.34 C0 0.78, 0.78 0, 2.34 0" stroke="none" stroke-width="0" fill="#ced4da"></path><path d="M2.34 0 C17.39 0, 32.44 0, 65.98 0 M2.34 0 C20.25 0, 38.17 0, 65.98 0 M65.98 0 C67.54 0, 68.32 0.78, 68.32 2.34 M65.98 0 C67.54 0, 68.32 0.78, 68.32 2.34 M68.32 2.34 C68.32 3.47, 68.32 4.6, 68.32 7.01 M68.32 2.34 C68.32 3.75, 68.32 5.17, 68.32 7.01 M68.32 7.01 C68.32 8.57, 67.54 9.35, 65.98 9.35 M68.32 7.01 C68.32 8.57, 67.54 9.35, 65.98 9.35 M65.98 9.35 C46.7 9.35, 27.42 9.35, 2.34 9.35 M65.98 9.35 C52.49 9.35, 38.99 9.35, 2.34 9.35 M2.34 9.35 C0.78 9.35, 0 8.57, 0 7.01 M2.34 9.35 C0.78 9.35, 0 8.57, 0 7.01 M0 7.01 C0 5.69, 0 4.37, 0 2.34 M0 7.01 C0 5.95, 0 4.89, 0 2.34 M0 2.34 C0 0.78, 0.78 0, 2.34 0 M0 2.34 C0 0.78, 0.78 0, 2.34 0" stroke="#343a40" stroke-width="2" fill="none"></path></g><g stroke-linecap="round" transform="translate(60.36780760609281 56.499405494009125) rotate(0 6.120820957724618 1.1798952533570173)"><path d="M0.59 0 C3.44 0, 6.3 0, 11.65 0 C12.04 0, 12.24 0.2, 12.24 0.59 C12.24 0.97, 12.24 1.35, 12.24 1.77 C12.24 2.16, 12.04 2.36, 11.65 2.36 C8.56 2.36, 5.48 2.36, 0.59 2.36 C0.2 2.36, 0 2.16, 0 1.77 C0 1.43, 0 1.1, 0 0.59 C0 0.2, 0.2 0, 0.59 0" stroke="none" stroke-width="0" fill="#343a40"></path><path d="M0.59 0 C4.12 0, 7.64 0, 11.65 0 M0.59 0 C3.6 0, 6.62 0, 11.65 0 M11.65 0 C12.04 0, 12.24 0.2, 12.24 0.59 M11.65 0 C12.04 0, 12.24 0.2, 12.24 0.59 M12.24 0.59 C12.24 1.03, 12.24 1.47, 12.24 1.77 M12.24 0.59 C12.24 0.91, 12.24 1.24, 12.24 1.77 M12.24 1.77 C12.24 2.16, 12.04 2.36, 11.65 2.36 M12.24 1.77 C12.24 2.16, 12.04 2.36, 11.65 2.36 M11.65 2.36 C8.09 2.36, 4.53 2.36, 0.59 2.36 M11.65 2.36 C8.48 2.36, 5.31 2.36, 0.59 2.36 M0.59 2.36 C0.2 2.36, 0 2.16, 0 1.77 M0.59 2.36 C0.2 2.36, 0 2.16, 0 1.77 M0 1.77 C0 1.37, 0 0.97, 0 0.59 M0 1.77 C0 1.39, 0 1.02, 0 0.59 M0 0.59 C0 0.2, 0.2 0, 0.59 0 M0 0.59 C0 0.2, 0.2 0, 0.59 0" stroke="#343a40" stroke-width="2" fill="none"></path></g><g stroke-linecap="round" transform="translate(38.679686483922524 49.36515512487347) rotate(0 6.120820957724504 1.1798952533570173)"><path d="M0.59 0 C3.46 0, 6.32 0, 11.65 0 C12.04 0, 12.24 0.2, 12.24 0.59 C12.24 0.99, 12.24 1.4, 12.24 1.77 C12.24 2.16, 12.04 2.36, 11.65 2.36 C9.36 2.36, 7.07 2.36, 0.59 2.36 C0.2 2.36, 0 2.16, 0 1.77 C0 1.49, 0 1.21, 0 0.59 C0 0.2, 0.2 0, 0.59 0" stroke="none" stroke-width="0" fill="#343a40"></path><path d="M0.59 0 C2.99 0, 5.39 0, 11.65 0 M0.59 0 C3.06 0, 5.53 0, 11.65 0 M11.65 0 C12.04 0, 12.24 0.2, 12.24 0.59 M11.65 0 C12.04 0, 12.24 0.2, 12.24 0.59 M12.24 0.59 C12.24 1.06, 12.24 1.53, 12.24 1.77 M12.24 0.59 C12.24 1.04, 12.24 1.48, 12.24 1.77 M12.24 1.77 C12.24 2.16, 12.04 2.36, 11.65 2.36 M12.24 1.77 C12.24 2.16, 12.04 2.36, 11.65 2.36 M11.65 2.36 C8.3 2.36, 4.94 2.36, 0.59 2.36 M11.65 2.36 C7.27 2.36, 2.89 2.36, 0.59 2.36 M0.59 2.36 C0.2 2.36, 0 2.16, 0 1.77 M0.59 2.36 C0.2 2.36, 0 2.16, 0 1.77 M0 1.77 C0 1.5, 0 1.24, 0 0.59 M0 1.77 C0 1.45, 0 1.14, 0 0.59 M0 0.59 C0 0.2, 0.2 0, 0.59 0 M0 0.59 C0 0.2, 0.2 0, 0.59 0" stroke="#343a40" stroke-width="2" fill="none"></path></g><g stroke-linecap="round" transform="translate(20.53847650305329 14.484226070455634) rotate(0 24.114462888662388 15.125362843360563)"><path d="M7.56 0 C19.43 0, 31.29 0, 40.67 0 C45.71 0, 48.23 2.52, 48.23 7.56 C48.23 11.65, 48.23 15.74, 48.23 22.69 C48.23 27.73, 45.71 30.25, 40.67 30.25 C27.66 30.25, 14.65 30.25, 7.56 30.25 C2.52 30.25, 0 27.73, 0 22.69 C0 18.46, 0 14.23, 0 7.56 C0 2.52, 2.52 0, 7.56 0" stroke="none" stroke-width="0" fill="#343a40"></path><path d="M7.56 0 C16.29 0, 25.02 0, 40.67 0 M7.56 0 C16.86 0, 26.15 0, 40.67 0 M40.67 0 C45.71 0, 48.23 2.52, 48.23 7.56 M40.67 0 C45.71 0, 48.23 2.52, 48.23 7.56 M48.23 7.56 C48.23 13.09, 48.23 18.61, 48.23 22.69 M48.23 7.56 C48.23 10.71, 48.23 13.85, 48.23 22.69 M48.23 22.69 C48.23 27.73, 45.71 30.25, 40.67 30.25 M48.23 22.69 C48.23 27.73, 45.71 30.25, 40.67 30.25 M40.67 30.25 C32.86 30.25, 25.06 30.25, 7.56 30.25 M40.67 30.25 C29.28 30.25, 17.9 30.25, 7.56 30.25 M7.56 30.25 C2.52 30.25, 0 27.73, 0 22.69 M7.56 30.25 C2.52 30.25, 0 27.73, 0 22.69 M0 22.69 C0 17.99, 0 13.29, 0 7.56 M0 22.69 C0 18.9, 0 15.12, 0 7.56 M0 7.56 C0 2.52, 2.52 0, 7.56 0 M0 7.56 C0 2.52, 2.52 0, 7.56 0" stroke="#343a40" stroke-width="2" fill="none"></path></g></svg>