<?xml version="1.0" standalone="no"?>
<!DOCTYPE svg PUBLIC "-//W3C//DTD SVG 1.1//EN" "http://www.w3.org/Graphics/SVG/1.1/DTD/svg11.dtd">
<svg version="1.1" xmlns="http://www.w3.org/2000/svg" viewBox="0 0 124.94263761147477 93.78237804603415" width="124.94263761147477" height="93.78237804603415"><!-- svg-source:excalidraw --><metadata></metadata><defs><style class="style-fonts">
      </style></defs><rect x="0" y="0" width="124.94263761147477" height="93.78237804603415" fill="#ffffff"></rect><g stroke-linecap="round"><g transform="translate(96.28518559725671 34.3274401898899) rotate(0 -34.2098270027916 17.468405895171657)" fill-rule="evenodd"><path d="M-85.15 9.46 C-85.15 9.46, -85.15 9.46, -85.15 9.46 M-85.15 9.46 C-85.15 9.46, -85.15 9.46, -85.15 9.46 M-86.07 16.61 C-83.67 13.96, -83.01 11.94, -79.51 9.06 M-86.07 16.61 C-83.56 14.07, -81.56 11.9, -79.51 9.06 M-84.36 20.74 C-80.25 17.09, -76.55 10.82, -74.52 9.42 M-84.36 20.74 C-81.54 18.98, -80.94 16.06, -74.52 9.42 M-83.31 25.63 C-80.95 21.87, -75.8 19.68, -68.88 9.03 M-83.31 25.63 C-77.6 19.68, -74.01 14.11, -68.88 9.03 M-81.6 29.76 C-73.48 20.44, -68.36 15.72, -63.89 9.39 M-81.6 29.76 C-76.79 25.5, -73.05 18.93, -63.89 9.39 M-79.24 33.14 C-72.82 26.22, -68.86 23.09, -58.25 8.99 M-79.24 33.14 C-74.3 26.33, -68.7 20.98, -58.25 8.99 M-76.22 35.77 C-71.39 27.61, -64.55 22.82, -53.26 9.35 M-76.22 35.77 C-69.58 28.37, -62.6 18.83, -53.26 9.35 M-73.86 39.15 C-63.51 29.63, -53.03 15.89, -47.62 8.96 M-73.86 39.15 C-67.74 32.9, -62.13 26.34, -47.62 8.96 M-70.84 41.77 C-58.89 28.1, -47.13 15.09, -42.63 9.32 M-70.84 41.77 C-61.8 30.55, -52.87 20.51, -42.63 9.32 M-67.16 43.64 C-59.74 38.67, -57.13 31.04, -37.64 9.68 M-67.16 43.64 C-59.49 34.77, -52.51 26.94, -37.64 9.68 M-63.49 45.51 C-57.35 36.18, -47.16 28.72, -32 9.28 M-63.49 45.51 C-51.81 32.41, -41.37 18.21, -32 9.28 M-12.97 -12.6 C-12.97 -12.6, -12.97 -12.6, -12.97 -12.6 M-12.97 -12.6 C-12.97 -12.6, -12.97 -12.6, -12.97 -12.6 M-59.16 46.63 C-50.32 36.77, -43.5 28.45, -27.01 9.64 M-59.16 46.63 C-47.93 33.56, -35.37 19.76, -27.01 9.64 M-14.55 -4.7 C-12.27 -5.56, -11.41 -8.86, -8.64 -11.49 M-14.55 -4.7 C-13.48 -6.46, -11.72 -7.05, -8.64 -11.49 M-54.83 47.74 C-47.13 36.53, -39.58 29.83, -21.37 9.25 M-54.83 47.74 C-41.21 32.29, -28.8 16.58, -21.37 9.25 M-13.5 0.19 C-11.61 -4.17, -8.33 -7.22, -4.97 -9.62 M-13.5 0.19 C-11.49 -2.99, -8.21 -5.92, -4.97 -9.62 M-49.84 48.1 C-36.78 33.42, -24.86 16.8, -15.73 8.86 M-49.84 48.1 C-42.01 38.09, -34.27 30.6, -15.73 8.86 M-11.13 3.57 C-9 1.22, -6.26 -3.9, -2.6 -6.24 M-11.13 3.57 C-7.83 -0.53, -5.15 -3.52, -2.6 -6.24 M-43.54 46.95 C-36.12 36.85, -25.35 24.19, -0.9 -2.11 M-43.54 46.95 C-27.74 27.8, -10.34 9.53, -0.9 -2.11 M-37.9 46.56 C-23.2 29.39, -6.4 11.41, 2.78 -0.24 M-37.9 46.56 C-22.23 27.1, -4.91 8.56, 2.78 -0.24 M-32.91 46.92 C-23.07 33.47, -13.44 21.39, 9.08 -1.39 M-32.91 46.92 C-21.7 36.09, -11.88 24.87, 9.08 -1.39 M-24.64 43.5 C-16.62 36.53, -11.61 26.21, -0.37 15.58 M-24.64 43.5 C-16.08 34.41, -7.57 23.56, -0.37 15.58 M2.91 11.8 C7.4 6.89, 10.08 2.25, 13.41 -0.27 M2.91 11.8 C5.76 7.56, 10.39 3.87, 13.41 -0.27 M-13.75 37.07 C-10.59 35.13, -10.44 31.66, -5.88 28.01 M-13.75 37.07 C-10.7 34.26, -9.18 31.35, -5.88 28.01 M9.87 9.9 C12.41 7.3, 13.72 5.25, 16.43 2.35 M9.87 9.9 C11.18 8.3, 13.12 5.89, 16.43 2.35" stroke="#228be6" stroke-width="0.5" fill="none"></path><path d="M0.16 0.39 C-0.11 -0.3, -1.4 -2.75, -2.4 -4.82 C-3.4 -6.88, -4.09 -10.72, -5.85 -12.01 C-7.61 -13.3, -11.52 -13.45, -12.97 -12.57 C-14.41 -11.69, -14.44 -8.86, -14.53 -6.73 C-14.62 -4.59, -14.16 -1.99, -13.51 0.26 C-12.86 2.5, -10.29 5.42, -10.64 6.74 C-10.99 8.07, -12.46 7.82, -15.61 8.21 C-18.76 8.59, -25.11 8.74, -29.55 9.04 C-33.99 9.35, -34.94 10.21, -42.24 10.01 C-49.53 9.82, -66.3 7.88, -73.32 7.88 C-80.34 7.89, -82.34 8.46, -84.36 10.06 C-86.38 11.66, -85.89 14.62, -85.41 17.5 C-84.93 20.37, -83.6 23.76, -81.48 27.3 C-79.36 30.84, -75.64 35.64, -72.7 38.73 C-69.77 41.82, -67.32 44.22, -63.86 45.83 C-60.4 47.45, -56.87 48.23, -51.96 48.41 C-47.05 48.59, -40.15 48.31, -34.38 46.91 C-28.6 45.51, -21.59 42.66, -17.29 40 C-12.99 37.35, -11.22 34.4, -8.57 30.99 C-5.92 27.58, -2.98 22.73, -1.38 19.55 C0.21 16.38, -0.35 13.22, 1.01 11.95 C2.36 10.67, 4.75 12.58, 6.76 11.91 C8.76 11.24, 11.28 9.26, 13.02 7.92 C14.77 6.58, 17.33 5.53, 17.23 3.87 C17.13 2.21, 14.53 -1.15, 12.43 -2.02 C10.34 -2.9, 6.9 -1.52, 4.64 -1.36 C2.38 -1.21, -0.3 -1.31, -1.12 -1.09 M-1.21 -0.44 C-1.59 -1.39, -2.65 -4.54, -3.48 -6.33 C-4.3 -8.11, -4.61 -10.35, -6.16 -11.18 C-7.7 -12, -11.2 -12.03, -12.74 -11.28 C-14.29 -10.54, -14.95 -8.42, -15.42 -6.71 C-15.9 -5.01, -16.46 -3.1, -15.6 -1.04 C-14.75 1.02, -10.13 4.21, -10.28 5.66 C-10.43 7.11, -13.54 7.32, -16.52 7.66 C-19.5 8, -23.93 7.28, -28.16 7.7 C-32.38 8.12, -34.43 10.07, -41.85 10.17 C-49.28 10.28, -65.42 8.38, -72.68 8.35 C-79.94 8.32, -83.37 8.52, -85.39 9.99 C-87.42 11.47, -85.44 14.42, -84.84 17.19 C-84.23 19.96, -83.89 22.58, -81.77 26.6 C-79.64 30.61, -75.18 37.87, -72.07 41.3 C-68.96 44.73, -66.78 45.84, -63.12 47.2 C-59.45 48.56, -55.18 49.37, -50.07 49.45 C-44.96 49.52, -37.69 49.14, -32.45 47.63 C-27.2 46.12, -22.56 42.85, -18.59 40.39 C-14.63 37.93, -11.4 36.52, -8.66 32.85 C-5.93 29.17, -3.86 21.49, -2.18 18.35 C-0.5 15.22, -0.04 15.22, 1.43 14.05 C2.9 12.89, 4.53 12.57, 6.64 11.36 C8.75 10.15, 12.07 7.92, 14.07 6.79 C16.07 5.66, 18.72 6.13, 18.66 4.56 C18.59 3, 15.8 -1.56, 13.68 -2.58 C11.57 -3.6, 8.29 -2.03, 5.96 -1.54 C3.62 -1.05, 0.74 -0.14, -0.31 0.37" stroke="#000000" stroke-width="1" fill="none"></path></g></g><mask></mask><g stroke-linecap="round" transform="translate(19.04651068096382 32.01206081737001) rotate(0 4.914936438698078 4.681262756984921)"><path d="M0 0 C0 0, 0 0, 0 0 M0 0 C0 0, 0 0, 0 0 M-0.26 6.4 C1.37 4.3, 3 2.69, 4.99 0.36 M-0.26 6.4 C1.1 4.99, 2.31 3.49, 4.99 0.36 M2.1 9.78 C4.52 7.09, 6.55 5.07, 9.97 0.72 M2.1 9.78 C4.76 6.43, 7.88 3.45, 9.97 0.72 M7.09 10.14 C8.24 8.74, 9.79 7.15, 10.37 6.36 M7.09 10.14 C8.11 9.02, 9.04 7.91, 10.37 6.36" stroke="#228be6" stroke-width="0.5" fill="none"></path><path d="M0 0 C3.4 0.25, 5.92 -0.01, 9.83 0 M0 0 C3.28 -0.05, 6.4 0.09, 9.83 0 M9.83 0 C9.84 2.79, 10.12 6.12, 9.83 9.36 M9.83 0 C9.93 2.17, 9.95 3.96, 9.83 9.36 M9.83 9.36 C6.47 9.08, 3.14 9.12, 0 9.36 M9.83 9.36 C6.18 9.36, 2.9 9.37, 0 9.36 M0 9.36 C0.17 6.06, -0.11 3.23, 0 0 M0 9.36 C-0.04 6.02, -0.15 2.4, 0 0" stroke="#000000" stroke-width="1" fill="none"></path></g><g stroke-linecap="round" transform="translate(30.403051612218405 31.87185660834217) rotate(0 4.720208370603814 4.720208370603757)"><path d="M0 0 C0 0, 0 0, 0 0 M0 0 C0 0, 0 0, 0 0 M-0.26 6.4 C1.07 4.94, 2.38 3.01, 4.99 0.36 M-0.26 6.4 C1.05 4.89, 2.5 3.25, 4.99 0.36 M2.1 9.78 C4.83 7.06, 7.13 4.24, 9.97 0.72 M2.1 9.78 C4.13 7.8, 6.1 5.23, 9.97 0.72 M7.09 10.14 C8.27 8.89, 9.14 7.88, 10.37 6.36 M7.09 10.14 C8.29 8.77, 9.54 7.23, 10.37 6.36" stroke="#228be6" stroke-width="0.5" fill="none"></path><path d="M0 0 C2.4 -0.04, 5.38 0.27, 9.44 0 M0 0 C2.19 0.08, 4.56 -0.04, 9.44 0 M9.44 0 C9.75 2.1, 9.19 4.07, 9.44 9.44 M9.44 0 C9.56 3.24, 9.53 6.61, 9.44 9.44 M9.44 9.44 C7.19 9.19, 4.82 9.46, 0 9.44 M9.44 9.44 C6.48 9.44, 3.42 9.39, 0 9.44 M0 9.44 C-0.14 6.64, 0.19 4.11, 0 0 M0 9.44 C-0.14 7.08, -0.03 4.99, 0 0" stroke="#000000" stroke-width="1" fill="none"></path></g><g stroke-linecap="round" transform="translate(41.681701316235376 32.02763906281754) rotate(0 4.642317143365972 4.642317143366071)"><path d="M0 0 C0 0, 0 0, 0 0 M0 0 C0 0, 0 0, 0 0 M-0.26 6.4 C0.82 4.8, 2.06 3.67, 4.99 0.36 M-0.26 6.4 C1.69 4.21, 3.73 1.94, 4.99 0.36 M2.1 9.78 C4.05 7.76, 5.31 5.41, 9.97 0.72 M2.1 9.78 C4.26 7.25, 6.11 4.99, 9.97 0.72 M7.09 10.14 C7.96 9.21, 8.94 8.18, 9.71 7.12 M7.09 10.14 C7.96 9.07, 8.85 8.15, 9.71 7.12" stroke="#228be6" stroke-width="0.5" fill="none"></path><path d="M0 0 C3.56 0.29, 6.74 0.08, 9.28 0 M0 0 C2.44 -0.06, 4.67 0, 9.28 0 M9.28 0 C9.06 2.4, 9.49 4.6, 9.28 9.28 M9.28 0 C9.38 3.42, 9.23 7.13, 9.28 9.28 M9.28 9.28 C7.44 9.3, 5.31 8.98, 0 9.28 M9.28 9.28 C6.57 9.23, 3.76 9.36, 0 9.28 M0 9.28 C0.21 7.41, -0.19 5.37, 0 0 M0 9.28 C-0.01 6.11, -0.04 3.05, 0 0" stroke="#000000" stroke-width="1" fill="none"></path></g><g stroke-linecap="round" transform="translate(52.64878611130143 31.934169590132285) rotate(0 4.642317143365972 4.642317143366071)"><path d="M0 0 C0 0, 0 0, 0 0 M0 0 C0 0, 0 0, 0 0 M-0.26 6.4 C1.47 4.38, 3.57 2.06, 4.99 0.36 M-0.26 6.4 C1.84 4.11, 3.81 1.71, 4.99 0.36 M2.1 9.78 C4.28 6.62, 6.76 4.39, 9.97 0.72 M2.1 9.78 C5.21 6.06, 8.38 2.82, 9.97 0.72 M7.09 10.14 C7.88 9.41, 8.51 8.52, 9.71 7.12 M7.09 10.14 C8.07 9.05, 9.01 7.82, 9.71 7.12" stroke="#228be6" stroke-width="0.5" fill="none"></path><path d="M0 0 C2.56 0.05, 5.37 -0.17, 9.28 0 M0 0 C3.03 0.02, 6.27 0.16, 9.28 0 M9.28 0 C9.44 3.42, 9.51 6.71, 9.28 9.28 M9.28 0 C9.23 2.06, 9.17 4.13, 9.28 9.28 M9.28 9.28 C7.22 9.01, 5.02 9.43, 0 9.28 M9.28 9.28 C6.5 9.35, 3.61 9.22, 0 9.28 M0 9.28 C-0.22 6.76, 0.11 4.09, 0 0 M0 9.28 C-0.06 7.45, -0.03 5.5, 0 0" stroke="#000000" stroke-width="1" fill="none"></path></g><g stroke-linecap="round" transform="translate(63.75607511539556 32.02763906281754) rotate(0 4.642317143365972 4.642317143366071)"><path d="M0 0 C0 0, 0 0, 0 0 M0 0 C0 0, 0 0, 0 0 M-0.26 6.4 C1.11 4.88, 2.31 3.64, 4.99 0.36 M-0.26 6.4 C1.63 4.2, 3.75 1.86, 4.99 0.36 M2.1 9.78 C4.27 7.33, 7.16 4.79, 9.97 0.72 M2.1 9.78 C3.75 8.16, 5.19 6.15, 9.97 0.72 M7.09 10.14 C8.07 9.01, 9.06 7.94, 9.71 7.12 M7.09 10.14 C7.65 9.37, 8.37 8.65, 9.71 7.12" stroke="#228be6" stroke-width="0.5" fill="none"></path><path d="M0 0 C3.52 -0.15, 7.42 0.05, 9.28 0 M0 0 C2.39 0.15, 5.04 -0.13, 9.28 0 M9.28 0 C9.56 3.55, 9.05 6.83, 9.28 9.28 M9.28 0 C9.14 2.07, 9.16 4.08, 9.28 9.28 M9.28 9.28 C6.36 9.4, 3.46 9.32, 0 9.28 M9.28 9.28 C6.66 9.24, 4.26 9.4, 0 9.28 M0 9.28 C0.15 6.07, -0.26 3.36, 0 0 M0 9.28 C-0.02 6.62, 0.08 3.87, 0 0" stroke="#000000" stroke-width="1" fill="none"></path></g><g stroke-linecap="round" transform="translate(52.50858190227336 20.96708479506617) rotate(0 4.720208370603814 4.720208370603757)"><path d="M0 0 C0 0, 0 0, 0 0 M0 0 C0 0, 0 0, 0 0 M-0.26 6.4 C1.65 4.39, 3.27 2.6, 4.99 0.36 M-0.26 6.4 C1.84 4.08, 3.9 1.53, 4.99 0.36 M2.1 9.78 C4.14 8.22, 5 6.03, 9.97 0.72 M2.1 9.78 C3.76 7.75, 5.7 5.89, 9.97 0.72 M7.09 10.14 C8.35 8.79, 9.25 7.51, 10.37 6.36 M7.09 10.14 C8.37 8.67, 9.52 7.39, 10.37 6.36" stroke="#228be6" stroke-width="0.5" fill="none"></path><path d="M0 0 C3.2 0.07, 6.03 -0.28, 9.44 0 M0 0 C2.97 -0.16, 5.87 0.06, 9.44 0 M9.44 0 C9.21 3.5, 9.2 6.56, 9.44 9.44 M9.44 0 C9.3 3.09, 9.44 6.04, 9.44 9.44 M9.44 9.44 C7.46 9.52, 5.4 9.41, 0 9.44 M9.44 9.44 C6.08 9.53, 2.86 9.33, 0 9.44 M0 9.44 C-0.3 6.75, -0.02 4.07, 0 0 M0 9.44 C0.07 6.07, -0.06 2.47, 0 0" stroke="#000000" stroke-width="1" fill="none"></path></g><g stroke-linecap="round" transform="translate(41.94653148884345 21.512323385729957) rotate(0 4.4865346888907425 4.4865346888907)"><path d="M0 0 C0 0, 0 0, 0 0 M0 0 C0 0, 0 0, 0 0 M-0.26 6.4 C1.14 5.03, 2.38 3.42, 4.99 0.36 M-0.26 6.4 C1.77 3.97, 3.69 1.64, 4.99 0.36 M2.76 9.02 C4.71 6.39, 7.08 3.82, 9.32 1.47 M2.76 9.02 C5.43 6.2, 7.98 3.18, 9.32 1.47 M7.74 9.38 C8.05 8.97, 8.5 8.51, 9.06 7.87 M7.74 9.38 C8.03 9.06, 8.31 8.7, 9.06 7.87" stroke="#228be6" stroke-width="0.5" fill="none"></path><path d="M0 0 C2.19 -0.29, 4.59 -0.19, 8.97 0 M0 0 C3.65 0.11, 7.21 0.15, 8.97 0 M8.97 0 C8.69 3.15, 9 6.33, 8.97 8.97 M8.97 0 C8.97 3.14, 8.82 6.2, 8.97 8.97 M8.97 8.97 C5.78 8.93, 2.93 8.7, 0 8.97 M8.97 8.97 C6.65 8.9, 4.24 9.05, 0 8.97 M0 8.97 C0.02 6.98, 0.23 5.2, 0 0 M0 8.97 C-0.07 5.71, 0.08 2.68, 0 0" stroke="#000000" stroke-width="1" fill="none"></path></g><g stroke-linecap="round" transform="translate(30.589990557588862 21.434432158492285) rotate(0 4.4865346888907425 4.4865346888907)"><path d="M0 0 C0 0, 0 0, 0 0 M0 0 C0 0, 0 0, 0 0 M-0.26 6.4 C1.35 4.6, 2.71 3.26, 4.99 0.36 M-0.26 6.4 C1.51 4.17, 3.59 2.18, 4.99 0.36 M2.76 9.02 C5.06 6.22, 8.16 3.05, 9.32 1.47 M2.76 9.02 C4.81 6.78, 6.66 4.57, 9.32 1.47 M7.74 9.38 C8.16 8.91, 8.42 8.6, 9.06 7.87 M7.74 9.38 C7.99 9.07, 8.28 8.78, 9.06 7.87" stroke="#228be6" stroke-width="0.5" fill="none"></path><path d="M0 0 C2.87 -0.16, 6 0.18, 8.97 0 M0 0 C2.04 0.11, 4.02 -0.14, 8.97 0 M8.97 0 C9 2.88, 9.09 6.04, 8.97 8.97 M8.97 0 C8.84 3.19, 9.04 6.39, 8.97 8.97 M8.97 8.97 C6.24 8.69, 3.09 8.86, 0 8.97 M8.97 8.97 C5.67 9.02, 2.3 8.82, 0 8.97 M0 8.97 C0.2 6.43, 0.18 4.13, 0 0 M0 8.97 C0.1 5.9, -0.05 2.53, 0 0" stroke="#000000" stroke-width="1" fill="none"></path></g><g stroke-linecap="round" transform="translate(52.352799447798134 10) rotate(0 4.720208370603814 4.720208370603757)"><path d="M0 0 C0 0, 0 0, 0 0 M0 0 C0 0, 0 0, 0 0 M-0.26 6.4 C1.56 4.59, 3.09 2.71, 4.99 0.36 M-0.26 6.4 C1.09 5.08, 2.4 3.36, 4.99 0.36 M2.1 9.78 C4.94 6.79, 7.04 4.36, 9.97 0.72 M2.1 9.78 C4.99 6.51, 7.97 2.81, 9.97 0.72 M7.09 10.14 C7.92 9.15, 8.86 7.92, 10.37 6.36 M7.09 10.14 C8.24 8.88, 9.41 7.53, 10.37 6.36" stroke="#228be6" stroke-width="0.5" fill="none"></path><path d="M0 0 C2.25 0.18, 3.62 0.21, 9.44 0 M0 0 C3.47 -0.15, 6.82 -0.16, 9.44 0 M9.44 0 C9.59 2.18, 9.62 4.84, 9.44 9.44 M9.44 0 C9.48 3.02, 9.45 6, 9.44 9.44 M9.44 9.44 C6.63 9.3, 4.26 9.46, 0 9.44 M9.44 9.44 C7.07 9.31, 4.96 9.45, 0 9.44 M0 9.44 C0.16 7.17, 0.16 4.51, 0 0 M0 9.44 C-0.09 6.87, 0.01 4.41, 0 0" stroke="#000000" stroke-width="1" fill="none"></path></g></svg>