<?xml version="1.0" standalone="no"?>
<!DOCTYPE svg PUBLIC "-//W3C//DTD SVG 1.1//EN" "http://www.w3.org/Graphics/SVG/1.1/DTD/svg11.dtd">
<svg version="1.1" xmlns="http://www.w3.org/2000/svg" viewBox="0 0 73.57671289383143 112.69394714407463" width="73.57671289383143" height="112.69394714407463"><!-- svg-source:excalidraw --><metadata></metadata><defs><style class="style-fonts">
      </style></defs><rect x="0" y="0" width="73.57671289383143" height="112.69394714407463" fill="#ffffff"></rect><g stroke-linecap="round"><g transform="translate(10.2071476764404 80.64057023775649) rotate(0 26.66027280477374 -24.29359666571918)" fill-rule="evenodd"><path d="M0 0 L38.77 22.05 L52.89 13.62 L53.37 -47.72 L14.07 -70.64 L-0.05 -61.62 L0 0" stroke="none" stroke-width="0" fill="#ced4da" fill-rule="evenodd"></path><path d="M0 0 C7.92 4.51, 15.84 9.01, 38.77 22.05 M0 0 C10.13 5.76, 20.26 11.52, 38.77 22.05 M38.77 22.05 C42.72 19.7, 46.67 17.34, 52.89 13.62 M38.77 22.05 C43.79 19.06, 48.8 16.06, 52.89 13.62 M52.89 13.62 C53.02 -3.06, 53.15 -19.75, 53.37 -47.72 M52.89 13.62 C53.02 -2.37, 53.14 -18.36, 53.37 -47.72 M53.37 -47.72 C40.91 -54.99, 28.45 -62.25, 14.07 -70.64 M53.37 -47.72 C39.65 -55.72, 25.94 -63.72, 14.07 -70.64 M14.07 -70.64 C10.16 -68.14, 6.25 -65.65, -0.05 -61.62 M14.07 -70.64 C9.36 -67.63, 4.65 -64.62, -0.05 -61.62 M-0.05 -61.62 C-0.03 -42.93, -0.02 -24.24, 0 0 M-0.05 -61.62 C-0.03 -42.69, -0.02 -23.76, 0 0 M0 0 C0 0, 0 0, 0 0 M0 0 C0 0, 0 0, 0 0" stroke="#495057" stroke-width="2" fill="none"></path></g></g><mask></mask><g stroke-linecap="round"><g transform="translate(10.257437070938522 19.115363187372623) rotate(0 19.765625 41.58288043478251)"><path d="M0 0 C10.54 6.21, 21.09 12.42, 39.53 23.28 M0 0 C13.62 8.02, 27.24 16.05, 39.53 23.28 M39.53 23.28 C39.44 36.4, 39.34 49.51, 39.1 83.17 M39.53 23.28 C39.41 39.97, 39.29 56.65, 39.1 83.17" stroke="#495057" stroke-width="2" fill="none"></path></g></g><mask></mask><g stroke-linecap="round"><g transform="translate(50.006078375286506 42.14525449172061) rotate(0 6.689967105263349 -4.255756578947285)"><path d="M0 0 C2.78 -1.77, 5.55 -3.53, 13.38 -8.51 M0 0 C4.52 -2.88, 9.05 -5.75, 13.38 -8.51" stroke="#495057" stroke-width="2" fill="none"></path></g></g><mask></mask><g stroke-linecap="round"><g transform="translate(10 71.2499455672355) rotate(0 26.294518525839635 11.509046052631675)"><path d="M0 0 C9.39 5.52, 18.79 11.05, 39.14 23.02 M0 0 C12.26 7.21, 24.52 14.42, 39.14 23.02 M39.14 23.02 C42.08 21.13, 45.02 19.24, 52.59 14.39 M39.14 23.02 C42.63 20.78, 46.13 18.54, 52.59 14.39" stroke="#495057" stroke-width="2" fill="none"></path></g></g><mask></mask><g stroke-linecap="round"><g transform="translate(10.737986270023157 51.61607829034665) rotate(0 26.34886635192663 11.509046052631675)"><path d="M0 0 C14.38 8.46, 28.77 16.92, 39.14 23.02 M0 0 C8.66 5.1, 17.33 10.19, 39.14 23.02 M39.14 23.02 C43.01 20.55, 46.89 18.09, 52.7 14.39 M39.14 23.02 C43.38 20.32, 47.62 17.62, 52.7 14.39" stroke="#495057" stroke-width="2" fill="none"></path></g></g><mask></mask><g stroke-linecap="round"><g transform="translate(10.217391304347984 40.75795472055324) rotate(0 26.185822873665643 11.509046052631675)"><path d="M0 0 C12.52 7.36, 25.04 14.73, 39.14 23.02 M0 0 C13.9 8.18, 27.8 16.35, 39.14 23.02 M39.14 23.02 C44.33 19.72, 49.52 16.42, 52.37 14.61 M39.14 23.02 C42.6 20.82, 46.07 18.61, 52.37 14.61" stroke="#495057" stroke-width="2" fill="none"></path></g></g><mask></mask><g stroke-linecap="round"><g transform="translate(10.217391304347984 30.46504854206387) rotate(0 26.24017069975264 11.509046052631675)"><path d="M0 0 C11.42 6.72, 22.84 13.43, 39.14 23.02 M0 0 C8.29 4.88, 16.58 9.75, 39.14 23.02 M39.14 23.02 C42.27 21.02, 45.39 19.03, 52.48 14.5 M39.14 23.02 C44.26 19.75, 49.38 16.48, 52.48 14.5" stroke="#495057" stroke-width="2" fill="none"></path></g></g><mask></mask><g stroke-linecap="round"><g transform="translate(22.922776011459064 36.720132345503316) rotate(0 6.827560795873296 -9.279661016949149)"><path d="M0 0 C-0.03 -2.96, -0.07 -5.92, -0.12 -10.59 M0 0 C-0.04 -3.76, -0.09 -7.53, -0.12 -10.59 M-0.12 -10.59 C3.66 -12.76, 7.44 -14.93, 13.78 -18.56 M-0.12 -10.59 C3.5 -12.67, 7.12 -14.75, 13.78 -18.56" stroke="#495057" stroke-width="2" fill="none"></path></g></g><mask></mask><g stroke-linecap="round"><g transform="translate(40.00825869384744 46.98173883039635) rotate(0 6.962048636698228 -9.666543846721197)"><path d="M0 0 C-0.04 -2.35, -0.07 -4.7, -0.17 -10.74 M0 0 C-0.05 -2.99, -0.09 -5.98, -0.17 -10.74 M-0.17 -10.74 C3.64 -13.03, 7.45 -15.33, 14.09 -19.33 M-0.17 -10.74 C3.26 -12.8, 6.68 -14.87, 14.09 -19.33" stroke="#495057" stroke-width="2" fill="none"></path></g></g><mask></mask><g stroke-linecap="round"><g transform="translate(17.499047197899472 35.316300363188475) rotate(0 0.02394988946207377 4.39941046425929)"><path d="M0 0 C0.02 2.84, 0.03 5.68, 0.05 8.8 M0 0 C0.01 2.35, 0.03 4.7, 0.05 8.8" stroke="#495057" stroke-width="2" fill="none"></path></g></g><mask></mask><g stroke-linecap="round"><g transform="translate(34.89035154572639 45.533691667536914) rotate(0 0.02394988946207377 4.39941046425929)"><path d="M0 0 C0.01 1.93, 0.02 3.85, 0.05 8.8 M0 0 C0.01 2.29, 0.02 4.57, 0.05 8.8" stroke="#495057" stroke-width="2" fill="none"></path></g></g><mask></mask><g stroke-linecap="round"><g transform="translate(10.520594965675173 62.05086089904307) rotate(0 26.34886635192663 11.509046052631675)"><path d="M0 0 C11.18 6.58, 22.36 13.15, 39.14 23.02 M0 0 C12.25 7.2, 24.49 14.41, 39.14 23.02 M39.14 23.02 C42.32 20.99, 45.51 18.96, 52.7 14.39 M39.14 23.02 C43.12 20.49, 47.1 17.96, 52.7 14.39" stroke="#495057" stroke-width="2" fill="none"></path></g></g><mask></mask><g stroke-linecap="round"><g transform="translate(39.23817763268244 58.35977862405889) rotate(0 0.02394988946207377 4.39941046425929)"><path d="M0 0 C0.02 3.45, 0.04 6.91, 0.05 8.8 M0 0 C0.01 2.3, 0.03 4.61, 0.05 8.8" stroke="#495057" stroke-width="2" fill="none"></path></g></g><mask></mask><g stroke-linecap="round"><g transform="translate(22.281655893552397 49.664126450145886) rotate(0 0.02394988946207377 3.8559322033897843)"><path d="M0 0 C0.01 1.81, 0.02 3.62, 0.05 7.71 M0 0 C0.02 2.96, 0.04 5.92, 0.05 7.71" stroke="#495057" stroke-width="2" fill="none"></path></g></g><mask></mask><g stroke-linecap="round"><g transform="translate(33.58600371963939 64.88151775449342) rotate(0 0.02394988946207377 4.39941046425929)"><path d="M0 0 C0.01 2.39, 0.03 4.79, 0.05 8.8 M0 0 C0.01 2.29, 0.02 4.59, 0.05 8.8" stroke="#495057" stroke-width="2" fill="none"></path></g></g><mask></mask><g stroke-linecap="round"><g transform="translate(16.41209067616137 55.75108297188535) rotate(0 0.02394988946207377 4.39941046425929)"><path d="M0 0 C0.01 2.35, 0.03 4.7, 0.05 8.8 M0 0 C0.01 2.11, 0.02 4.23, 0.05 8.8" stroke="#495057" stroke-width="2" fill="none"></path></g></g><mask></mask><g stroke-linecap="round"><g transform="translate(22.716438502248366 70.0989090588414) rotate(0 0.02394988946207377 4.39941046425929)"><path d="M0 0 C0.01 1.95, 0.02 3.89, 0.05 8.8 M0 0 C0.01 2.64, 0.03 5.28, 0.05 8.8" stroke="#495057" stroke-width="2" fill="none"></path></g></g><mask></mask><g stroke-linecap="round"><g transform="translate(38.151221110943425 78.57716992840642) rotate(0 0.02394988946207377 4.0733235077377685)"><path d="M0 0 C0.01 2.55, 0.03 5.1, 0.05 8.15 M0 0 C0.01 2.53, 0.03 5.05, 0.05 8.15" stroke="#495057" stroke-width="2" fill="none"></path></g></g><mask></mask><g stroke-linecap="round"><g transform="translate(33.151221110943425 84.88151775449387) rotate(0 0.02394988946207377 3.8559322033897843)"><path d="M0 0 C0.01 1.81, 0.02 3.62, 0.05 7.71 M0 0 C0.01 2.26, 0.03 4.53, 0.05 7.71" stroke="#495057" stroke-width="2" fill="none"></path></g></g><mask></mask><g stroke-linecap="round"><g transform="translate(17.064264589204413 76.40325688492885) rotate(0 0.02394988946207377 3.8559322033897843)"><path d="M0 0 C0.02 2.56, 0.03 5.13, 0.05 7.71 M0 0 C0.01 2.24, 0.03 4.49, 0.05 7.71" stroke="#495057" stroke-width="2" fill="none"></path></g></g><mask></mask></svg>