<?xml version="1.0" standalone="no"?>
<!DOCTYPE svg PUBLIC "-//W3C//DTD SVG 1.1//EN" "http://www.w3.org/Graphics/SVG/1.1/DTD/svg11.dtd">
<svg version="1.1" xmlns="http://www.w3.org/2000/svg" viewBox="0 0 97.808728355923 117.73415916817851" width="97.808728355923" height="117.73415916817851"><!-- svg-source:excalidraw --><metadata></metadata><defs><style class="style-fonts">
      </style></defs><rect x="0" y="0" width="97.808728355923" height="117.73415916817851" fill="#ffffff"></rect><g stroke-linecap="round"><g transform="translate(11.277976353604572 18.90941522847413) rotate(0 37.46505032385653 40.68892391534882)" fill-rule="evenodd"><path d="M-1.29 2.43 C-1.98 15.23, -2.31 62.09, -1.95 75.19 C-1.6 88.29, -0.15 79.44, 0.84 81.02 C1.82 82.6, 1.59 83.68, 3.97 84.65 C6.36 85.63, 9.46 85.76, 15.16 86.88 C20.86 88, 30.18 91.42, 38.17 91.35 C46.16 91.28, 57.08 87.36, 63.1 86.46 C69.11 85.57, 72.69 86.87, 74.27 85.98 C75.86 85.1, 72.3 83.39, 72.6 81.16 C72.9 78.92, 75.84 84.7, 76.09 72.56 C76.33 60.43, 74.28 20.32, 74.08 8.32 C73.87 -3.68, 76.01 2.49, 74.86 0.56 C73.71 -1.37, 69.82 -2.56, 67.16 -3.28 C64.5 -4.01, 63.9 -3.1, 58.9 -3.79 C53.9 -4.48, 44.22 -6.99, 37.16 -7.43 C30.09 -7.88, 21.9 -6.8, 16.5 -6.46 C11.1 -6.13, 7.25 -6.58, 4.76 -5.44 C2.27 -4.3, 2.56 -0.21, 1.55 0.38 C0.54 0.98, -1.4 -1.6, -1.31 -1.87" stroke="none" stroke-width="0" fill="#ced4da" fill-rule="evenodd"></path><path d="M-0.66 -0.56 C-0.63 11.56, 0.78 59.74, 0.69 73.52 C0.6 87.31, -1.79 80.14, -1.18 82.14 C-0.56 84.15, 1.38 84.71, 4.38 85.56 C7.38 86.42, 11.05 86.74, 16.84 87.28 C22.63 87.82, 31.55 88.71, 39.11 88.81 C46.66 88.91, 56.44 88.52, 62.17 87.88 C67.9 87.24, 71.24 86.12, 73.49 84.97 C75.74 83.81, 75.35 82.63, 75.68 80.97 C76.02 79.3, 75.43 87.37, 75.48 74.98 C75.53 62.58, 76.32 19.18, 75.99 6.6 C75.66 -5.98, 74.64 1.42, 73.5 -0.51 C72.36 -2.45, 71.5 -4.02, 69.17 -5.01 C66.83 -6, 64.89 -5.81, 59.51 -6.45 C54.13 -7.1, 43.69 -9.03, 36.89 -8.9 C30.08 -8.77, 24.43 -6.49, 18.67 -5.67 C12.92 -4.86, 5.3 -5.15, 2.35 -4.01 C-0.61 -2.88, 1.51 0.49, 0.93 1.15 C0.35 1.81, -1.08 0.32, -1.14 -0.04 M1.2 1.77 C1.07 13.44, -0.01 58.52, -0.02 71.59 C-0.04 84.65, 0.27 77.59, 1.09 80.14 C1.91 82.69, 1.95 85.73, 4.9 86.91 C7.85 88.09, 12.94 87.1, 18.8 87.22 C24.66 87.34, 32.69 87.71, 40.08 87.62 C47.46 87.53, 57.68 87.11, 63.11 86.7 C68.54 86.29, 70.76 86.34, 72.65 85.16 C74.55 83.98, 73.86 81.32, 74.51 79.62 C75.15 77.91, 76.72 86.9, 76.51 74.93 C76.31 62.97, 73.48 20.49, 73.28 7.83 C73.07 -4.84, 75.96 0.71, 75.28 -1.05 C74.6 -2.82, 71.92 -1.79, 69.18 -2.76 C66.44 -3.74, 64.13 -6.29, 58.85 -6.9 C53.57 -7.51, 44.57 -6.31, 37.52 -6.42 C30.46 -6.53, 22.05 -8.01, 16.51 -7.56 C10.98 -7.11, 7.02 -4.74, 4.3 -3.73 C1.57 -2.72, 0.78 -2.17, 0.15 -1.51 C-0.47 -0.86, 0.34 -0.11, 0.53 0.19" stroke="#000000" stroke-width="1" fill="none"></path></g></g><mask></mask><g stroke-linecap="round" transform="translate(11.543908944288432 10.156447072446099) rotate(0 37.26504103857019 7.5365741936356585)"><path d="M41.95 0.15 C49.63 0.17, 59.05 0.72, 64.49 1.86 C69.93 3, 74.06 5.25, 74.59 6.97 C75.11 8.7, 72.42 10.92, 67.65 12.2 C62.89 13.47, 53.83 14.2, 46 14.6 C38.17 15, 27.89 15.22, 20.66 14.6 C13.43 13.97, 5.78 12.44, 2.61 10.86 C-0.56 9.28, -0.66 6.66, 1.63 5.12 C3.92 3.59, 9.55 2.5, 16.34 1.67 C23.12 0.83, 37.84 0.28, 42.32 0.1 C46.81 -0.07, 43.31 0.46, 43.22 0.6 M37.15 0 C44.83 0.06, 55.03 1.49, 61.2 2.53 C67.37 3.57, 72.89 4.79, 74.15 6.25 C75.41 7.71, 72.82 9.97, 68.75 11.27 C64.68 12.56, 57.13 13.4, 49.74 14.01 C42.35 14.62, 31.77 15.34, 24.42 14.93 C17.07 14.52, 9.59 12.95, 5.65 11.57 C1.7 10.18, -0.49 8.37, 0.77 6.62 C2.03 4.86, 7.08 2.22, 13.19 1.05 C19.3 -0.13, 33.33 -0.32, 37.44 -0.43 C41.55 -0.55, 37.86 0.13, 37.86 0.35" stroke="none" stroke-width="0" fill="#fff"></path><path d="M28.32 0.05 C35.45 -0.52, 45.99 -0.37, 53.13 0.4 C60.27 1.17, 67.79 3.13, 71.14 4.68 C74.49 6.24, 75.33 8.16, 73.25 9.74 C71.16 11.32, 65.25 13.25, 58.63 14.16 C52 15.08, 41.48 15.39, 33.52 15.25 C25.56 15.1, 16.41 14.54, 10.87 13.29 C5.33 12.03, 0.94 9.44, 0.29 7.72 C-0.36 6, 2.08 4.21, 6.95 2.96 C11.83 1.7, 25.4 0.59, 29.55 0.18 C33.7 -0.24, 31.71 0.29, 31.83 0.47 M45.58 0.91 C53.07 1.22, 61.01 1.82, 65.89 2.86 C70.77 3.91, 74.88 5.62, 74.85 7.16 C74.81 8.7, 71.12 10.67, 65.67 12.1 C60.21 13.53, 50.23 15.34, 42.1 15.74 C33.97 16.15, 23.55 15.55, 16.88 14.55 C10.21 13.55, 4.45 11.39, 2.09 9.73 C-0.27 8.07, -0.1 6.12, 2.73 4.58 C5.56 3.05, 12.13 1.12, 19.08 0.5 C26.03 -0.12, 40.06 0.94, 44.43 0.85 C48.79 0.76, 45.25 -0.14, 45.27 -0.03" stroke="#000000" stroke-width="1" fill="none"></path></g></svg>