<?xml version="1.0" standalone="no"?>
<!DOCTYPE svg PUBLIC "-//W3C//DTD SVG 1.1//EN" "http://www.w3.org/Graphics/SVG/1.1/DTD/svg11.dtd">
<svg version="1.1" xmlns="http://www.w3.org/2000/svg" viewBox="0 0 108.60597329413213 107.23694059650393" width="108.60597329413213" height="107.23694059650393"><!-- svg-source:excalidraw --><metadata></metadata><defs><style class="style-fonts">
      </style></defs><rect x="0" y="0" width="108.60597329413213" height="107.23694059650393" fill="#ffffff"></rect><g stroke-linecap="round"><g transform="translate(54.11446329963155 10) rotate(0 0.18852334743451138 43.3636096698818)" fill-rule="evenodd"><path d="M-1.34 1.65 L-38.47 18.17 L-42.89 55.66 L-19.72 87.48 L25.2 86.31 L43.33 53.14 L36.81 15.01 L-1.71 0.47" stroke="none" stroke-width="0" fill="#326ce5" fill-rule="evenodd"></path><path d="M0 0 C-10.92 4.46, -21.11 10.68, -36.57 17.49 M0 0 C-9.7 4.68, -18.61 7.82, -36.57 17.49 M-36.57 17.49 C-37.78 24.98, -38.98 34.85, -44.11 54.9 M-36.57 17.49 C-38.84 31.24, -40.96 43.55, -44.11 54.9 M-44.11 54.9 C-38.38 62.43, -30.44 71.6, -18.85 86.73 M-44.11 54.9 C-34.67 65.62, -25.7 78.22, -18.85 86.73 M-18.85 86.73 C-4.06 87.68, 12.34 87.12, 23.57 86.54 M-18.85 86.73 C-9.05 87.16, 1.8 86.21, 23.57 86.54 M23.57 86.54 C26.89 78, 33.78 74.21, 44.49 52.48 M23.57 86.54 C28.48 78.17, 34.2 70.88, 44.49 52.48 M44.49 52.48 C41.69 37.32, 38.93 23.72, 36.2 15.63 M44.49 52.48 C40.2 39.35, 37.29 25.53, 36.2 15.63 M36.2 15.63 C22.34 9.92, 8.91 4.19, 0 0 M36.2 15.63 C27.64 12.83, 19.49 7.96, 0 0 M0 0 C0 0, 0 0, 0 0 M0 0 C0 0, 0 0, 0 0" stroke="#000000" stroke-width="1" fill="none"></path></g></g><mask></mask><g stroke-linecap="round"><g transform="translate(47.205475036818825 31.51649181271739) rotate(0.5801223728874558 8.134968940607223 21.983200523418148)" fill-rule="evenodd"><path d="M-1.43 0.8 C-0.84 0.47, 4.75 -1.6, 5.5 -2.29 C6.26 -2.99, 3.23 -1.65, 3.09 -3.39 C2.95 -5.13, 3.74 -11.74, 4.67 -12.73 C5.6 -13.71, 7.94 -10.86, 8.66 -9.29 C9.39 -7.73, 8.65 -4.72, 9.03 -3.34 C9.41 -1.96, 10.5 -1.23, 10.96 -1.04 C11.42 -0.85, 10.29 -2.57, 11.79 -2.2 C13.28 -1.83, 17.33 0.09, 19.91 1.19 C22.5 2.29, 26.22 3.97, 27.28 4.42 C28.35 4.88, 25.4 4.08, 26.3 3.92 C27.21 3.75, 31.31 3.99, 32.7 3.44 C34.09 2.88, 34.88 0.37, 34.65 0.6 C34.43 0.84, 32.12 3.82, 31.35 4.85 C30.58 5.87, 29.82 4.95, 30.04 6.72 C30.25 8.49, 32.22 13.23, 32.64 15.47 C33.06 17.71, 32.38 18.27, 32.58 20.18 C32.77 22.09, 33.09 25.76, 33.8 26.91 C34.5 28.06, 35.8 26.83, 36.82 27.08 C37.84 27.33, 39.15 27.62, 39.94 28.4 C40.73 29.18, 42.27 31.02, 41.57 31.73 C40.86 32.45, 37.45 32.33, 35.69 32.69 C33.94 33.06, 31.71 33.54, 31.02 33.93 C30.34 34.32, 31.95 33.42, 31.56 35.06 C31.17 36.69, 30.61 41.41, 28.69 43.72 C26.78 46.03, 21.48 47.8, 20.1 48.91 C18.72 50.02, 19.42 49.87, 20.4 50.39 C21.39 50.91, 25.64 51.42, 26.01 52.03 C26.38 52.64, 23.56 54.75, 22.63 54.04 C21.7 53.33, 21.57 48.42, 20.42 47.76 C19.28 47.09, 17.43 49.89, 15.77 50.05 C14.1 50.21, 12.92 48.95, 10.43 48.71 C7.93 48.47, 3.5 48.58, 0.81 48.63 C-1.89 48.67, -5.15 49.01, -5.75 48.98 C-6.35 48.94, -2.78 47.38, -2.79 48.4 C-2.8 49.42, -4.23 54.84, -5.8 55.09 C-7.38 55.33, -12 50.92, -12.27 49.87 C-12.54 48.82, -8.21 49.17, -7.42 48.78 C-6.63 48.4, -7.06 48.64, -7.53 47.56 C-8 46.48, -9.33 44.49, -10.26 42.3 C-11.2 40.1, -11.7 35.91, -13.14 34.38 C-14.58 32.86, -17.68 33.26, -18.9 33.16 C-20.12 33.06, -19.23 33.96, -20.48 33.78 C-21.73 33.6, -25.35 32.21, -26.39 32.08 C-27.44 31.94, -27.9 33.41, -26.74 32.97 C-25.58 32.54, -21.21 29.91, -19.4 29.46 C-17.6 29.01, -16.25 31.37, -15.9 30.28 C-15.55 29.19, -17.41 25.52, -17.3 22.92 C-17.18 20.32, -16.26 16.63, -15.22 14.66 C-14.18 12.7, -10.94 12.19, -11.04 11.11 C-11.15 10.04, -14.23 9.38, -15.85 8.21 C-17.47 7.03, -20.42 5.29, -20.78 4.07 C-21.13 2.85, -19.21 0.75, -17.99 0.87 C-16.77 1, -14.37 4.12, -13.46 4.81 C-12.56 5.5, -13.56 5.5, -12.57 4.99 C-11.57 4.49, -9.54 2.54, -7.48 1.79 C-5.41 1.04, -1.23 0.58, -0.16 0.49" stroke="none" stroke-width="0" fill="#ffff" fill-rule="evenodd"></path><path d="M-0.31 -0.05 C0.58 -0.35, 4.23 -1.31, 5.15 -2.06 C6.07 -2.81, 5.4 -3.15, 5.23 -4.55 C5.06 -5.94, 3.69 -9.14, 4.11 -10.43 C4.54 -11.72, 7.36 -13.47, 7.78 -12.29 C8.19 -11.11, 6.51 -5.17, 6.61 -3.36 C6.71 -1.55, 7.24 -1.98, 8.38 -1.44 C9.52 -0.9, 11.25 -0.8, 13.44 -0.11 C15.64 0.58, 19.54 1.62, 21.57 2.71 C23.61 3.79, 24.47 5.84, 25.64 6.42 C26.82 7.01, 27.24 6.96, 28.6 6.19 C29.96 5.43, 33 2.37, 33.81 1.86 C34.62 1.34, 34.28 2.37, 33.48 3.12 C32.67 3.86, 29.82 5.29, 28.99 6.33 C28.16 7.36, 27.93 7.85, 28.5 9.33 C29.07 10.8, 31.66 13.12, 32.42 15.19 C33.18 17.27, 32.63 19.75, 33.05 21.8 C33.46 23.84, 34.32 26.06, 34.88 27.48 C35.44 28.91, 35.18 29.87, 36.4 30.35 C37.61 30.83, 41.37 30.1, 42.18 30.36 C42.99 30.63, 42.33 31.77, 41.27 31.95 C40.2 32.12, 37.07 31.59, 35.81 31.42 C34.54 31.25, 34.57 29.79, 33.66 30.92 C32.75 32.06, 31.64 36.22, 30.36 38.23 C29.09 40.25, 27.54 41.64, 26 43.01 C24.45 44.38, 22.04 45.57, 21.1 46.47 C20.16 47.37, 19.62 47.3, 20.36 48.42 C21.11 49.55, 25.33 51.93, 25.57 53.22 C25.81 54.51, 22.58 56.94, 21.82 56.16 C21.06 55.39, 21.81 49.84, 21.01 48.56 C20.21 47.29, 18.73 48.35, 17.02 48.5 C15.31 48.64, 13.18 49.12, 10.77 49.43 C8.37 49.75, 4.8 50.94, 2.61 50.4 C0.42 49.85, -0.97 46.52, -2.36 46.15 C-3.76 45.79, -4.7 46.9, -5.74 48.21 C-6.78 49.53, -7.85 53.24, -8.61 54.06 C-9.37 54.88, -10.84 54.51, -10.32 53.15 C-9.8 51.8, -5.98 47.14, -5.48 45.93 C-4.98 44.73, -6.32 46.51, -7.33 45.92 C-8.33 45.34, -10.4 44.08, -11.52 42.42 C-12.63 40.76, -13.03 37.76, -14.03 35.98 C-15.02 34.21, -16.71 32.57, -17.5 31.79 C-18.28 31.01, -17.51 31.13, -18.72 31.31 C-19.93 31.48, -23.48 32.78, -24.73 32.83 C-25.98 32.89, -27.05 31.9, -26.21 31.62 C-25.36 31.33, -21.06 31.71, -19.66 31.12 C-18.26 30.53, -18.29 29.96, -17.81 28.1 C-17.33 26.24, -17.03 22.03, -16.78 19.96 C-16.53 17.89, -16.92 17.37, -16.33 15.68 C-15.73 14, -13.37 11.16, -13.21 9.84 C-13.05 8.52, -14.11 8.78, -15.37 7.76 C-16.64 6.73, -20.28 4.78, -20.79 3.69 C-21.29 2.6, -19.51 0.77, -18.41 1.2 C-17.31 1.63, -15.32 5.18, -14.2 6.27 C-13.07 7.35, -12.79 8.18, -11.65 7.7 C-10.52 7.23, -9.46 4.63, -7.39 3.42 C-5.33 2.22, -0.41 0.95, 0.73 0.45 M1.73 -1.12 C2.51 -1.24, 3.95 -0.41, 4.41 -0.81 C4.87 -1.21, 4.54 -2.16, 4.49 -3.54 C4.44 -4.92, 3.82 -7.59, 4.13 -9.08 C4.44 -10.57, 5.77 -13.32, 6.34 -12.49 C6.91 -11.67, 7.11 -5.77, 7.52 -4.13 C7.94 -2.5, 8.05 -3.34, 8.82 -2.69 C9.6 -2.04, 10.3 -0.93, 12.19 -0.21 C14.08 0.51, 17.86 0.51, 20.19 1.61 C22.52 2.7, 24.67 5.96, 26.17 6.37 C27.68 6.77, 28.08 4.82, 29.22 4.02 C30.36 3.22, 32.31 1.82, 33 1.55 C33.7 1.28, 34.2 1.64, 33.37 2.38 C32.54 3.11, 28.79 4.84, 28.01 5.97 C27.23 7.09, 27.74 7.94, 28.69 9.14 C29.64 10.33, 32.67 10.85, 33.73 13.12 C34.79 15.4, 34.99 20.37, 35.05 22.78 C35.1 25.19, 33.97 26.78, 34.05 27.57 C34.12 28.36, 33.98 27.31, 35.49 27.52 C36.99 27.73, 42.27 28.31, 43.06 28.81 C43.86 29.32, 41.38 30.34, 40.27 30.57 C39.16 30.8, 37.51 29.72, 36.43 30.19 C35.36 30.65, 34.58 32.06, 33.82 33.34 C33.07 34.63, 33 36.76, 31.93 37.9 C30.85 39.04, 28.98 38.78, 27.39 40.18 C25.81 41.57, 23.44 44.99, 22.41 46.29 C21.38 47.59, 21.03 46.51, 21.21 47.96 C21.39 49.41, 23.44 53.86, 23.48 54.97 C23.52 56.08, 22.09 55.35, 21.43 54.61 C20.77 53.87, 20.37 51.76, 19.51 50.51 C18.64 49.26, 17.76 47.58, 16.25 47.11 C14.73 46.65, 13.02 47.13, 10.43 47.7 C7.84 48.26, 3.08 50.63, 0.72 50.51 C-1.65 50.39, -2.9 47.44, -3.77 46.96 C-4.65 46.47, -3.74 46.76, -4.52 47.59 C-5.31 48.43, -7.82 51.2, -8.47 51.99 C-9.12 52.78, -8.54 52.93, -8.43 52.32 C-8.32 51.71, -8.42 49.83, -7.84 48.32 C-7.25 46.81, -4.61 44.21, -4.92 43.28 C-5.23 42.36, -8.33 43.91, -9.72 42.78 C-11.11 41.66, -12.08 38.38, -13.24 36.53 C-14.4 34.69, -15.6 32.64, -16.68 31.7 C-17.75 30.76, -18.4 30.56, -19.68 30.89 C-20.95 31.23, -23.62 33.55, -24.33 33.69 C-25.05 33.82, -25.05 32.03, -23.97 31.71 C-22.89 31.38, -18.69 32.47, -17.85 31.73 C-17.02 30.99, -19.27 28.96, -18.96 27.25 C-18.64 25.54, -16.37 23.56, -15.97 21.47 C-15.57 19.38, -17.17 16.64, -16.56 14.71 C-15.96 12.79, -12.61 11.36, -12.33 9.91 C-12.04 8.46, -13.45 6.63, -14.87 6.01 C-16.28 5.39, -20.36 6.53, -20.81 6.21 C-21.27 5.89, -18.51 3.98, -17.58 4.1 C-16.65 4.23, -16.57 6.41, -15.24 6.96 C-13.91 7.5, -10.97 8.2, -9.6 7.39 C-8.23 6.57, -8.54 3.27, -7 2.06 C-5.47 0.85, -1.68 0.29, -0.39 0.11" stroke="#000000" stroke-width="1" fill="none"></path></g></g><mask></mask><g stroke-linecap="round"><g transform="translate(39.58179377887336 41.0110641329681) rotate(0 6.767095049166301 0.21408966455408063)" fill-rule="evenodd"><path d="M1.58 0.31 C1.97 -0.48, 2.18 -2.27, 3.16 -3.43 C4.14 -4.59, 5.87 -6.27, 7.45 -6.63 C9.04 -6.99, 11.54 -6.88, 12.67 -5.6 C13.8 -4.32, 14.43 -1.14, 14.25 1.06 C14.06 3.26, 12.75 7.26, 11.58 7.6 C10.42 7.94, 8.99 4.13, 7.27 3.11 C5.55 2.09, 2.28 1.9, 1.24 1.49" stroke="none" stroke-width="0" fill="#326ce5" fill-rule="evenodd"></path><path d="M0.18 -0.25 C0.88 -0.9, 2.75 -2.96, 4.05 -3.92 C5.35 -4.87, 6.47 -5.44, 7.97 -5.96 C9.47 -6.49, 12.2 -8.13, 13.05 -7.07 C13.91 -6, 13.19 -1.93, 13.1 0.42 C13 2.78, 13.66 6.46, 12.46 7.06 C11.26 7.67, 7.94 5.18, 5.9 4.04 C3.87 2.91, 1.27 0.86, 0.25 0.25 M-0.38 0.82 C0.26 0.24, 2.31 -2.06, 3.63 -3.35 C4.95 -4.64, 5.92 -6.34, 7.52 -6.92 C9.11 -7.5, 12.12 -8.1, 13.18 -6.83 C14.24 -5.56, 13.89 -1.52, 13.87 0.72 C13.84 2.96, 14.31 6.16, 13.02 6.63 C11.72 7.1, 8.28 4.61, 6.09 3.54 C3.91 2.47, 0.83 0.83, -0.09 0.22" stroke="#000000" stroke-width="1" fill="none"></path></g></g><mask></mask><g stroke-linecap="round"><g transform="translate(53.940134820029925 39.40264353514186) rotate(56.61573969620872 6.858740262869787 0.22375794481064304)" fill-rule="evenodd"><path d="M-0.87 0.22 C-0.59 -0.5, 1.81 -3.14, 3.24 -4.03 C4.66 -4.92, 6.05 -4.81, 7.68 -5.12 C9.31 -5.43, 12.18 -6.81, 13.01 -5.89 C13.84 -4.98, 12.45 -1.71, 12.67 0.35 C12.88 2.42, 15.22 5.68, 14.31 6.49 C13.41 7.31, 9.45 6.24, 7.24 5.25 C5.02 4.27, 2.2 1.56, 1.04 0.6" stroke="none" stroke-width="0" fill="#326ce5" fill-rule="evenodd"></path><path d="M0.02 -0.27 C0.62 -0.79, 2.41 -2.31, 3.76 -3.37 C5.1 -4.42, 6.71 -6.06, 8.06 -6.59 C9.41 -7.12, 10.95 -7.61, 11.86 -6.54 C12.77 -5.47, 13.37 -2.51, 13.55 -0.18 C13.73 2.14, 14.16 6.73, 12.94 7.43 C11.73 8.13, 8.44 5.2, 6.25 4.02 C4.06 2.84, 0.79 0.94, -0.21 0.34 M-0.63 0.79 C-0.14 0.12, 1.82 -3.05, 3.22 -4.22 C4.61 -5.39, 6.31 -5.69, 7.73 -6.25 C9.15 -6.81, 10.62 -8.63, 11.75 -7.58 C12.87 -6.53, 14.16 -2.4, 14.45 0.04 C14.74 2.48, 14.78 6.48, 13.48 7.06 C12.19 7.64, 9.05 4.65, 6.67 3.53 C4.29 2.42, 0.39 0.95, -0.78 0.37" stroke="#000000" stroke-width="1" fill="none"></path></g></g><mask></mask><g stroke-linecap="round"><g transform="translate(64.45821929731892 49.731653734712665) rotate(107.76551663161719 6.742439285380442 0.5447378992633105)" fill-rule="evenodd"><path d="M-0.72 -0.45 C0.03 -0.93, 2.08 -1.88, 3.66 -2.68 C5.24 -3.48, 7.38 -4.71, 8.76 -5.25 C10.14 -5.79, 10.95 -6.7, 11.93 -5.91 C12.91 -5.13, 14.41 -3.04, 14.65 -0.54 C14.9 1.96, 14.67 8.2, 13.41 9.1 C12.14 10.01, 9.24 6.47, 7.05 4.87 C4.85 3.27, 1.26 0.26, 0.23 -0.5" stroke="none" stroke-width="0" fill="#326ce5" fill-rule="evenodd"></path><path d="M-0.2 0.22 C0.47 -0.43, 2.74 -3.13, 4.04 -4.15 C5.35 -5.17, 6.15 -5.51, 7.61 -5.89 C9.07 -6.28, 11.86 -7.49, 12.81 -6.45 C13.75 -5.4, 13.35 -1.99, 13.29 0.39 C13.22 2.78, 13.66 7.16, 12.42 7.87 C11.17 8.57, 7.83 5.85, 5.8 4.61 C3.78 3.37, 1.14 1.19, 0.26 0.44 M0.69 -0.15 C1.29 -0.72, 2.29 -2.6, 3.63 -3.71 C4.96 -4.83, 7.17 -6.47, 8.7 -6.84 C10.24 -7.2, 11.92 -7.16, 12.83 -5.9 C13.74 -4.65, 14.4 -1.56, 14.18 0.68 C13.96 2.91, 12.89 6.94, 11.52 7.52 C10.16 8.1, 7.92 5.34, 5.99 4.17 C4.06 3, 0.92 1.28, -0.07 0.5" stroke="#000000" stroke-width="1" fill="none"></path></g></g><mask></mask><g stroke-linecap="round"><g transform="translate(62.326561386768844 64.09450532140454) rotate(163.11582915884097 6.45809444404108 0.6246578064573214)" fill-rule="evenodd"><path d="M-0.36 0.95 C0.3 0.7, 2.17 -0.89, 3.22 -1.95 C4.27 -3.01, 4.32 -4.5, 5.92 -5.42 C7.52 -6.33, 11.46 -8.65, 12.84 -7.44 C14.21 -6.24, 14.08 -0.86, 14.16 1.81 C14.23 4.48, 14.65 8.16, 13.31 8.57 C11.96 8.97, 8.17 5.62, 6.1 4.25 C4.03 2.87, 1.82 1.18, 0.88 0.31" stroke="none" stroke-width="0" fill="#326ce5" fill-rule="evenodd"></path><path d="M0.03 -0.51 C0.41 -0.98, 0.94 -1.69, 2.07 -2.6 C3.2 -3.5, 5.23 -5.3, 6.8 -5.95 C8.37 -6.6, 10.41 -7.6, 11.47 -6.51 C12.53 -5.42, 13.07 -1.89, 13.17 0.58 C13.27 3.05, 13.24 7.54, 12.07 8.31 C10.89 9.08, 8.05 6.55, 6.13 5.18 C4.2 3.81, 1.6 0.96, 0.53 0.1 M-0.62 0.41 C-0.06 -0.24, 1.91 -2.49, 3.08 -3.44 C4.24 -4.4, 4.96 -4.9, 6.36 -5.31 C7.76 -5.72, 10.44 -6.93, 11.48 -5.9 C12.52 -4.87, 12.44 -1.44, 12.63 0.88 C12.81 3.2, 13.61 7.36, 12.6 8.01 C11.59 8.67, 8.6 6.13, 6.55 4.79 C4.51 3.46, 1.35 0.89, 0.33 0" stroke="#000000" stroke-width="1" fill="none"></path></g></g><mask></mask><g stroke-linecap="round"><g transform="translate(49.668806382521325 71.49814823258492) rotate(216.28421746585929 6.611154242287512 0.037219908173099725)" fill-rule="evenodd"><path d="M0.71 0.88 C1.15 0.28, 0.97 -1.33, 2.29 -2.66 C3.62 -3.99, 6.84 -6.52, 8.67 -7.09 C10.5 -7.66, 12.39 -7.35, 13.26 -6.07 C14.13 -4.79, 13.85 -1.6, 13.88 0.6 C13.91 2.8, 14.53 6.5, 13.46 7.13 C12.38 7.77, 9.57 5.76, 7.41 4.4 C5.25 3.05, 1.74 -0.48, 0.48 -0.97" stroke="none" stroke-width="0" fill="#326ce5" fill-rule="evenodd"></path><path d="M-0.44 0.23 C0.08 -0.21, 1.88 -2.13, 3.17 -3.2 C4.46 -4.26, 5.78 -5.47, 7.3 -6.15 C8.82 -6.84, 11.38 -8.39, 12.27 -7.31 C13.16 -6.23, 12.43 -2.22, 12.64 0.34 C12.84 2.91, 14.41 7.42, 13.48 8.07 C12.55 8.71, 9.35 5.53, 7.06 4.2 C4.76 2.87, 0.92 0.8, -0.29 0.07 M0.34 -0.12 C0.77 -0.42, 1.57 -1.29, 2.65 -2.46 C3.74 -3.62, 5.21 -6.13, 6.85 -7.11 C8.49 -8.09, 11.4 -9.65, 12.51 -8.34 C13.62 -7.04, 13.51 -2, 13.53 0.7 C13.54 3.39, 13.85 7.33, 12.59 7.82 C11.33 8.31, 7.93 4.95, 5.96 3.64 C3.99 2.33, 1.66 0.43, 0.76 -0.04" stroke="#000000" stroke-width="1" fill="none"></path></g></g><mask></mask><g stroke-linecap="round"><g transform="translate(35.75828146134654 65.81828065895974) rotate(272.70762780618236 6.5454919556248115 -0.5722981865122847)" fill-rule="evenodd"><path d="M-1.05 0.62 C-0.54 -0.26, 2.27 -3.41, 3.77 -4.4 C5.27 -5.38, 6.68 -4.95, 7.95 -5.28 C9.22 -5.62, 10.52 -7.04, 11.37 -6.41 C12.23 -5.78, 12.63 -3.59, 13.06 -1.49 C13.49 0.61, 15.07 5.38, 13.97 6.17 C12.88 6.97, 8.85 4.08, 6.49 3.29 C4.13 2.51, 1.01 1.76, -0.19 1.45" stroke="none" stroke-width="0" fill="#326ce5" fill-rule="evenodd"></path><path d="M-0.17 0.08 C0.3 -0.53, 1.22 -2.36, 2.4 -3.46 C3.59 -4.56, 5.67 -5.99, 6.96 -6.52 C8.25 -7.05, 9.11 -7.66, 10.13 -6.66 C11.15 -5.67, 12.5 -2.66, 13.09 -0.56 C13.67 1.55, 14.85 5.15, 13.62 5.97 C12.39 6.78, 8.03 5.36, 5.72 4.34 C3.41 3.32, 0.73 0.52, -0.24 -0.15 M0.74 -0.35 C1.16 -1.15, 0.87 -3.14, 1.87 -4.32 C2.87 -5.51, 5.36 -6.9, 6.74 -7.46 C8.12 -8.01, 9.17 -8.59, 10.14 -7.65 C11.11 -6.71, 12.09 -4.02, 12.55 -1.82 C13.01 0.38, 13.98 4.62, 12.87 5.55 C11.76 6.48, 7.87 4.75, 5.86 3.76 C3.85 2.78, 1.69 0.27, 0.83 -0.38" stroke="#000000" stroke-width="1" fill="none"></path></g></g><mask></mask><g stroke-linecap="round"><g transform="translate(31.95587880706853 52.388737347222616) rotate(323.4456150347969 7.351818727053114 -0.5478920869417436)" fill-rule="evenodd"><path d="M1.17 -0.73 C1.98 -1.19, 2.75 -1.28, 3.84 -2.18 C4.94 -3.09, 6.54 -5.17, 7.75 -6.17 C8.95 -7.16, 10 -9.03, 11.05 -8.15 C12.1 -7.28, 13.34 -3.24, 14.03 -0.95 C14.72 1.34, 16.35 4.52, 15.18 5.59 C14.01 6.65, 9.65 6.16, 7.01 5.46 C4.37 4.76, 0.43 2.31, -0.67 1.39" stroke="none" stroke-width="0" fill="#326ce5" fill-rule="evenodd"></path><path d="M-0.2 0.21 C0.3 -0.38, 1.74 -2.32, 2.85 -3.42 C3.97 -4.53, 5.13 -5.79, 6.5 -6.42 C7.87 -7.06, 9.88 -8.1, 11.08 -7.22 C12.27 -6.34, 13.12 -3.46, 13.68 -1.15 C14.23 1.16, 15.53 5.8, 14.41 6.63 C13.29 7.47, 9.38 4.92, 6.95 3.87 C4.53 2.82, 1 0.92, -0.12 0.32 M0.7 -0.16 C1.17 -0.92, 1.66 -3.07, 2.55 -4.26 C3.44 -5.45, 4.59 -6.66, 6.05 -7.31 C7.51 -7.96, 10.12 -9.22, 11.32 -8.16 C12.53 -7.09, 12.68 -3.31, 13.28 -0.92 C13.87 1.47, 15.93 5.24, 14.9 6.2 C13.88 7.16, 9.71 5.82, 7.12 4.84 C4.53 3.87, 0.6 1.17, -0.65 0.33" stroke="#000000" stroke-width="1" fill="none"></path></g></g><mask></mask><g stroke-linecap="round" transform="translate(52.9741185542066 52.148601838863726) rotate(0 2.9606426333709805 2.9606426333709237)"><path d="M3.64 -0.19 C4.32 -0.06, 5.01 0.74, 5.38 1.21 C5.75 1.68, 5.92 2.02, 5.88 2.62 C5.83 3.23, 5.55 4.3, 5.13 4.85 C4.7 5.39, 3.97 5.81, 3.33 5.88 C2.69 5.95, 1.8 5.59, 1.3 5.26 C0.8 4.93, 0.5 4.46, 0.34 3.9 C0.18 3.34, 0.22 2.47, 0.37 1.92 C0.51 1.38, 0.73 0.95, 1.2 0.62 C1.67 0.29, 2.77 0.02, 3.19 -0.07 C3.62 -0.16, 3.7 0.05, 3.75 0.07 M3.05 -0.48 C3.65 -0.47, 4.15 0.04, 4.57 0.59 C4.98 1.14, 5.45 2.16, 5.54 2.83 C5.62 3.5, 5.27 4.07, 5.07 4.58 C4.86 5.1, 4.86 5.7, 4.31 5.92 C3.76 6.15, 2.34 6.19, 1.76 5.94 C1.18 5.69, 1.16 4.96, 0.82 4.41 C0.49 3.86, -0.31 3.28, -0.25 2.64 C-0.19 2, 0.73 0.98, 1.19 0.56 C1.65 0.13, 2.21 0.26, 2.5 0.12 C2.8 -0.03, 2.85 -0.41, 2.95 -0.31" stroke="none" stroke-width="0" fill="#326ce5"></path><path d="M3.04 0.33 C3.61 0.2, 4.31 0.1, 4.78 0.4 C5.26 0.7, 5.76 1.48, 5.88 2.12 C6.01 2.75, 5.78 3.59, 5.52 4.2 C5.26 4.82, 4.88 5.59, 4.34 5.82 C3.8 6.05, 2.92 5.75, 2.3 5.59 C1.68 5.42, 1.03 5.29, 0.62 4.84 C0.21 4.39, -0.23 3.52, -0.13 2.88 C-0.03 2.25, 0.7 1.5, 1.22 1.03 C1.74 0.55, 2.71 0.18, 2.98 0.05 C3.25 -0.08, 2.84 0.18, 2.83 0.24 M2.46 0.44 C3.09 0.26, 4.27 0.21, 4.75 0.49 C5.23 0.78, 5.15 1.57, 5.33 2.15 C5.5 2.72, 6.04 3.3, 5.8 3.95 C5.55 4.6, 4.38 5.79, 3.85 6.06 C3.32 6.32, 3.22 5.71, 2.62 5.54 C2.01 5.37, 0.7 5.52, 0.24 5.05 C-0.23 4.59, -0.3 3.36, -0.17 2.75 C-0.05 2.14, 0.44 1.88, 0.99 1.38 C1.53 0.88, 2.86 -0.06, 3.09 -0.27 C3.33 -0.49, 2.49 0, 2.39 0.12" stroke="#000000" stroke-width="1" fill="none"></path></g></svg>