<?xml version="1.0" standalone="no"?>
<!DOCTYPE svg PUBLIC "-//W3C//DTD SVG 1.1//EN" "http://www.w3.org/Graphics/SVG/1.1/DTD/svg11.dtd">
<svg version="1.1" xmlns="http://www.w3.org/2000/svg" viewBox="0 0 92.78061093876886 93.45578128301446" width="92.78061093876886" height="93.45578128301446"><!-- svg-source:excalidraw --><metadata></metadata><defs><style class="style-fonts">
      </style></defs><rect x="0" y="0" width="92.78061093876886" height="93.45578128301446" fill="#ffffff"></rect><g stroke-linecap="round"><g transform="translate(56.17406449498003 13.35442547566879) rotate(0 -9.388807288528596 33.20853130882304)"><path d="M-0.68 -0.17 C-1.84 -0.58, -5.29 -2.34, -7.33 -2.54 C-9.38 -2.73, -11.35 -1.66, -12.94 -1.34 C-14.54 -1.01, -13.3 -0.52, -16.9 -0.58 C-20.5 -0.65, -29.84 -2.58, -34.54 -1.71 C-39.23 -0.84, -43.32 0.57, -45.07 4.63 C-46.82 8.7, -46.24 16.75, -45.04 22.68 C-43.84 28.61, -40.59 35.64, -37.88 40.22 C-35.17 44.8, -31.72 50.25, -28.79 50.16 C-25.86 50.07, -22.33 41.38, -20.31 39.7 C-18.29 38.02, -17.75 39.89, -16.68 40.08 C-15.61 40.27, -14.05 40.29, -13.9 40.84 C-13.75 41.39, -14.98 42.57, -15.77 43.39 C-16.56 44.21, -17.28 45.24, -18.64 45.79 C-20.01 46.33, -24.17 46.28, -23.96 46.66 C-23.74 47.04, -19.16 47.81, -17.34 48.07 C-15.52 48.34, -14.3 48.16, -13.02 48.27 C-11.75 48.39, -10.56 46.36, -9.68 48.74 C-8.8 51.12, -8.64 59.33, -7.72 62.56 C-6.81 65.79, -6.6 67.5, -4.21 68.11 C-1.82 68.73, 4.1 67.71, 6.59 66.26 C9.09 64.81, 10.2 62.08, 10.74 59.4 C11.27 56.72, 9.65 52.35, 9.79 50.18 C9.93 48.01, 9.93 47.1, 11.58 46.39 C13.24 45.69, 17.69 46.87, 19.73 45.96 C21.77 45.06, 23.86 41.91, 23.83 40.97 C23.8 40.03, 21.15 40.98, 19.54 40.32 C17.93 39.65, 14.08 39.2, 14.17 36.98 C14.27 34.76, 18.23 30.53, 20.11 27 C21.99 23.47, 24.51 20, 25.47 15.81 C26.43 11.61, 27.27 5, 25.85 1.83 C24.44 -1.33, 19.99 -2.56, 16.98 -3.18 C13.97 -3.8, 10.62 -2.59, 7.77 -1.9 C4.93 -1.2, 1.23 0.82, -0.11 0.98 M1.17 -1.3 C-0.12 -1.54, -5.81 -1.38, -8.3 -1.2 C-10.78 -1.02, -11.86 -0.43, -13.77 -0.23 C-15.67 -0.03, -16.59 0.14, -19.72 0.02 C-22.86 -0.1, -28.6 -1.53, -32.57 -0.95 C-36.54 -0.38, -41.57 -0.28, -43.55 3.47 C-45.53 7.22, -45.25 15.49, -44.43 21.54 C-43.61 27.6, -41.05 35.24, -38.65 39.8 C-36.24 44.36, -33.24 49.01, -30 48.92 C-26.76 48.82, -21.44 40.49, -19.22 39.2 C-16.99 37.92, -17.35 41.03, -16.64 41.19 C-15.94 41.35, -15.24 39.94, -14.99 40.15 C-14.74 40.35, -14.48 41.47, -15.15 42.43 C-15.82 43.4, -17.59 44.79, -19.02 45.92 C-20.46 47.06, -24.19 48.71, -23.75 49.23 C-23.32 49.76, -18.54 49.11, -16.4 49.08 C-14.25 49.05, -11.8 49.08, -10.9 49.06 C-10 49.04, -11.3 47.2, -11 48.97 C-10.7 50.74, -10.25 56.3, -9.1 59.7 C-7.96 63.11, -6.56 67.95, -4.13 69.41 C-1.7 70.87, 2.87 69.77, 5.48 68.45 C8.09 67.13, 10.84 64.61, 11.53 61.49 C12.22 58.38, 9.94 52.34, 9.62 49.76 C9.31 47.18, 8.25 46.53, 9.65 46.01 C11.06 45.48, 15.56 47.46, 18.05 46.58 C20.54 45.7, 24.62 41.87, 24.6 40.73 C24.57 39.59, 19.45 40.12, 17.9 39.76 C16.36 39.41, 14.92 40.58, 15.33 38.61 C15.74 36.64, 18.97 31.98, 20.35 27.94 C21.72 23.9, 22.78 18.5, 23.58 14.36 C24.38 10.22, 26.32 5.79, 25.14 3.09 C23.96 0.39, 19.7 -1.03, 16.49 -1.87 C13.28 -2.7, 8.34 -2.06, 5.85 -1.92 C3.36 -1.77, 2.33 -1.57, 1.55 -0.99" stroke="#000000" stroke-width="1" fill="none"></path></g></g><mask></mask><g stroke-linecap="round"><g transform="translate(39.88527831918327 13.845802054785395) rotate(0 0.03902247418341176 23.491529458413027)"><path d="M-0.03 -0.38 C-0.75 0.42, -3.97 2.37, -4.99 4.63 C-6.02 6.9, -5.89 9.75, -6.17 13.21 C-6.45 16.66, -6.45 22.47, -6.67 25.36 C-6.88 28.25, -7.52 28.78, -7.44 30.55 C-7.36 32.33, -7.1 34.78, -6.19 36.02 C-5.28 37.26, -3.53 37.25, -1.97 37.98 C-0.4 38.71, 1.68 39.85, 3.18 40.42 C4.67 40.99, 6.35 40.62, 7.02 41.4 C7.69 42.17, 7.32 44.22, 7.19 45.07 C7.07 45.91, 6.39 46.19, 6.26 46.47 M-1.5 -1.63 C-2.33 -0.65, -5.19 3.35, -6 5.96 C-6.81 8.57, -6.24 11.15, -6.34 14.02 C-6.45 16.89, -6.23 20.37, -6.64 23.17 C-7.05 25.97, -9.11 28.82, -8.8 30.82 C-8.5 32.82, -6.1 34.23, -4.81 35.18 C-3.52 36.14, -2.3 35.72, -1.06 36.56 C0.17 37.39, 1.49 39.65, 2.61 40.21 C3.73 40.78, 4.83 39.22, 5.67 39.97 C6.52 40.72, 7.48 43.54, 7.68 44.74 C7.88 45.94, 7.28 46.94, 6.9 47.18" stroke="#000000" stroke-width="1" fill="none"></path></g></g><mask></mask><g stroke-linecap="round"><g transform="translate(55.89986800344559 13.360490178827206) rotate(0 7.141112775564125 18.78932131931211)"><path d="M-0.05 -0.18 C0.7 -0.09, 2.84 -0.64, 4.5 0.38 C6.15 1.4, 8.46 3.43, 9.87 5.94 C11.29 8.45, 12.59 12.25, 12.97 15.46 C13.35 18.68, 11.89 22.43, 12.15 25.23 C12.4 28.03, 14.36 30.17, 14.51 32.24 C14.66 34.32, 13.31 36.82, 13.04 37.7 M-0.74 -0.75 C-0.02 -0.59, 2.64 -0.11, 4.33 0.85 C6.03 1.82, 7.96 2.53, 9.43 5.04 C10.89 7.55, 12.8 12.5, 13.13 15.91 C13.47 19.32, 11.38 22.86, 11.46 25.5 C11.54 28.14, 13.53 29.79, 13.6 31.74 C13.67 33.68, 12.04 36.21, 11.88 37.15" stroke="#000000" stroke-width="1" fill="none"></path></g></g><mask></mask><g stroke-linecap="round"><g transform="translate(66.80708135928398 59.6229123349288) rotate(0 -1.1394562461555324 -16.13189082742187)"><path d="M0.52 -0.44 C0.53 -1.07, -0.21 -3, 0.05 -3.96 C0.31 -4.93, 1.4 -5.74, 2.08 -6.22 C2.77 -6.7, 4.22 -6.41, 4.17 -6.87 C4.12 -7.33, 2.51 -8, 1.78 -8.96 C1.05 -9.93, 0.52 -11.11, -0.22 -12.64 C-0.96 -14.16, -1.57 -15.79, -2.66 -18.11 C-3.74 -20.44, -6.39 -24.24, -6.72 -26.59 C-7.06 -28.93, -6.13 -31.23, -4.68 -32.2 C-3.23 -33.16, 0.89 -32.42, 1.99 -32.38 M0.12 0.52 C0.05 -0.25, -0.76 -3.73, -0.48 -4.77 C-0.2 -5.8, 0.99 -5.42, 1.78 -5.68 C2.57 -5.93, 4.36 -5.75, 4.27 -6.27 C4.18 -6.8, 2.11 -7.69, 1.23 -8.82 C0.34 -9.95, -0.47 -11.4, -1.04 -13.05 C-1.61 -14.71, -1.45 -16.47, -2.22 -18.75 C-2.99 -21.02, -5.14 -24.6, -5.65 -26.69 C-6.16 -28.78, -6.38 -30.29, -5.3 -31.28 C-4.21 -32.27, -0.4 -32.35, 0.86 -32.64" stroke="#000000" stroke-width="1" fill="none"></path></g></g><mask></mask><g stroke-linecap="round"><g transform="translate(32.82366209941165 31.85380010164738) rotate(0 5.677769993686297 9.59952864911898)"><path d="M-0.19 0.32 C0.37 0.05, 2.45 -1.63, 3.92 -2.06 C5.39 -2.49, 7.36 -2.86, 8.63 -2.28 C9.91 -1.69, 11.06 -0.51, 11.58 1.45 C12.1 3.42, 12.02 7.2, 11.76 9.49 C11.49 11.77, 10.54 13.13, 10 15.18 C9.46 17.23, 8.69 20.72, 8.54 21.76 M0.71 0.01 C1.17 -0.14, 2.28 -0.87, 3.54 -1.42 C4.8 -1.96, 6.89 -3.81, 8.27 -3.25 C9.65 -2.7, 11.31 -0.24, 11.81 1.92 C12.31 4.09, 11.74 7.6, 11.29 9.73 C10.85 11.85, 9.56 12.77, 9.12 14.69 C8.69 16.6, 8.77 20.13, 8.7 21.21" stroke="#000000" stroke-width="1" fill="none"></path></g></g><mask></mask><g stroke-linecap="round"><g transform="translate(64.13009945499607 28.87933160980441) rotate(358.18735542929625 -0.026076219166725423 1.1550417096694332)"><path d="M0.06 -0.07 C-0.23 0.08, -1.93 0.71, -1.9 1.1 C-1.86 1.49, -0.41 2.37, 0.25 2.27 C0.91 2.16, 2.1 0.86, 2.08 0.48 C2.07 0.1, 0.56 0.04, 0.18 -0.02 M-0.33 -0.41 C-0.67 -0.39, -2.26 0.03, -2.18 0.53 C-2.11 1.04, -0.65 2.58, 0.1 2.63 C0.85 2.68, 2.33 1.27, 2.29 0.85 C2.25 0.42, 0.2 0.25, -0.15 0.08" stroke="#000000" stroke-width="1" fill="none"></path></g></g><mask></mask><g stroke-linecap="round"><g transform="translate(39.86994100547645 30.899436133883967) rotate(14.802012269513854 0.04282823925655066 1.0861252030190371)"><path d="M-0.02 0.12 C-0.33 0.28, -1.79 0.53, -1.78 0.89 C-1.77 1.24, -0.53 2.1, 0.03 2.25 C0.59 2.4, 1.29 2.14, 1.59 1.79 C1.9 1.44, 2.09 0.46, 1.85 0.14 C1.62 -0.18, 0.45 -0.12, 0.18 -0.15 M-0.46 -0.13 C-0.8 0.09, -2.05 0.85, -1.98 1.32 C-1.92 1.79, -0.69 2.55, -0.06 2.68 C0.56 2.81, 1.35 2.5, 1.76 2.1 C2.17 1.7, 2.77 0.73, 2.41 0.29 C2.05 -0.15, -0.07 -0.4, -0.39 -0.54" stroke="#000000" stroke-width="1" fill="none"></path></g></g><mask></mask></svg>