<?xml version="1.0" standalone="no"?>
<!DOCTYPE svg PUBLIC "-//W3C//DTD SVG 1.1//EN" "http://www.w3.org/Graphics/SVG/1.1/DTD/svg11.dtd">
<svg version="1.1" xmlns="http://www.w3.org/2000/svg" viewBox="0 0 109.38691215753943 89.79222388056661" width="109.38691215753943" height="89.79222388056661"><!-- svg-source:excalidraw --><metadata></metadata><defs><style class="style-fonts">
      </style></defs><rect x="0" y="0" width="109.38691215753943" height="89.79222388056661" fill="#ffffff"></rect><g stroke-linecap="round" transform="translate(12.601977845951751 37.64989589080665) rotate(0 42.91908006738731 17.660482707154586)"><path d="M43.28 -1.8 L86.95 17.64 L42.03 36.57 L1.75 18.46" stroke="none" stroke-width="0" fill="#c6302b" fill-rule="evenodd"></path><path d="M43 0 C56.87 5.95, 72.61 13.12, 85.84 18 M43 0 C56.73 4.49, 69.56 11.31, 85.84 18 M85.84 18 C72.48 24.83, 54.71 29.88, 43 35.32 M85.84 18 C71.84 24.4, 56.53 29.27, 43 35.32 M43 35.32 C29.63 30.18, 15.68 25.1, 0 18 M43 35.32 C30.47 29.41, 15.95 24.69, 0 18 M0 18 C16.26 10.08, 30.93 4, 43 0 M0 18 C9.59 13.66, 19.24 9.7, 43 0" stroke="#000000" stroke-width="1" fill="none"></path></g><g stroke-linecap="round"><g transform="translate(12.068056275735216 55.11529187038235) rotate(0 42.7496626460686 11.828416324791903)" fill-rule="evenodd"><path d="M1.57 -1.41 C0.98 -0.84, -2.21 1.54, -1.98 2.96 C-1.75 4.39, -0.23 5.12, 2.95 7.13 C6.13 9.13, 11.94 12.39, 17.12 14.99 C22.3 17.59, 29.98 21.61, 34.02 22.73 C38.07 23.85, 38.72 21.71, 41.41 21.71 C44.11 21.71, 45.65 24.08, 50.19 22.71 C54.74 21.33, 62.98 16.24, 68.67 13.46 C74.36 10.68, 81.45 8.07, 84.32 6 C87.18 3.94, 85.53 2.13, 85.85 1.09 C86.16 0.04, 87.74 -0.9, 86.21 -0.26 C84.67 0.39, 82.74 2.19, 76.64 4.98 C70.54 7.77, 55.83 14.64, 49.6 16.49 C43.37 18.34, 47.82 18.58, 39.28 16.06 C30.74 13.54, 4.69 3.75, -1.61 1.36" stroke="none" stroke-width="0" fill="#912626" fill-rule="evenodd"></path><path d="M0.01 -0.2 C-0.08 0.41, 0.14 1.97, 0.51 3.03 C0.89 4.09, -0.84 4.62, 2.27 6.16 C5.37 7.7, 13.34 9.63, 19.15 12.27 C24.96 14.92, 32.96 20.31, 37.12 22.03 C41.28 23.74, 42.05 22.47, 44.09 22.57 C46.13 22.67, 45.2 24.14, 49.34 22.6 C53.49 21.06, 63.24 15.93, 68.95 13.33 C74.65 10.73, 80.69 8.86, 83.56 6.99 C86.43 5.12, 85.77 3.09, 86.18 2.1 C86.59 1.11, 87.27 0.93, 86.03 1.06 C84.79 1.18, 85.17 0.36, 78.74 2.85 C72.3 5.34, 54.04 13.92, 47.43 15.99 C40.82 18.07, 46.99 18.12, 39.08 15.29 C31.17 12.45, 6.48 1.53, -0.03 -1.01 M-1.45 -1.35 C-1.74 -0.48, -0.7 3.08, -0.16 4.58 C0.37 6.07, -1.59 6.25, 1.75 7.63 C5.09 9.01, 14.15 10.33, 19.87 12.86 C25.59 15.38, 32.37 20.82, 36.08 22.78 C39.8 24.74, 39.9 24.78, 42.17 24.62 C44.43 24.46, 45.31 23.82, 49.65 21.84 C54 19.86, 62.86 15.37, 68.23 12.72 C73.6 10.07, 78.69 7.27, 81.87 5.94 C85.05 4.6, 87.06 5.87, 87.3 4.69 C87.54 3.51, 84.9 -0.73, 83.31 -1.16 C81.73 -1.59, 83.74 -0.62, 77.8 2.11 C71.85 4.84, 54.2 13.07, 47.65 15.2 C41.1 17.34, 46.38 17.2, 38.48 14.92 C30.59 12.65, 6.52 3.83, 0.28 1.56" stroke="#000000" stroke-width="1" fill="none"></path></g></g><mask></mask><g stroke-linecap="round"><g transform="translate(11.934575883181424 41.900733007528856) rotate(0 42.7496626460686 11.828416324791903)" fill-rule="evenodd"><path d="M-1.98 -0.05 C-2.05 0.89, 0.72 3, 1.16 4.27 C1.6 5.55, -1.8 5.86, 0.67 7.59 C3.13 9.32, 10.37 12.69, 15.97 14.66 C21.56 16.63, 29.61 17.69, 34.23 19.39 C38.85 21.09, 41.01 24.59, 43.69 24.88 C46.36 25.16, 46.05 23, 50.28 21.1 C54.51 19.2, 63.46 16.31, 69.07 13.49 C74.68 10.67, 80.99 5.94, 83.95 4.17 C86.92 2.39, 86.91 3.25, 86.86 2.84 C86.81 2.44, 84.8 1.52, 83.66 1.71 C82.51 1.91, 85.94 1.57, 79.97 4.02 C74.01 6.46, 54.97 14.21, 47.85 16.37 C40.74 18.53, 45 19.42, 37.27 16.98 C29.54 14.53, 8.04 4.15, 1.48 1.69" stroke="none" stroke-width="0" fill="#912626" fill-rule="evenodd"></path><path d="M0.51 0.01 C0.59 0.6, 0.12 2.5, 0.48 3.31 C0.84 4.12, -0.4 3.1, 2.69 4.88 C5.79 6.65, 13.36 11.4, 19.07 13.96 C24.77 16.52, 32.95 18.45, 36.91 20.25 C40.88 22.05, 40.56 24.65, 42.84 24.77 C45.11 24.89, 46.32 22.69, 50.56 20.97 C54.81 19.26, 62.7 17.11, 68.32 14.48 C73.94 11.84, 81.22 6.9, 84.28 5.18 C87.35 3.46, 86.44 5.09, 86.69 4.16 C86.93 3.23, 87.23 -0.31, 85.75 -0.42 C84.27 -0.52, 84.15 0.85, 77.8 3.52 C71.46 6.19, 54.15 13.75, 47.66 15.6 C41.16 17.44, 46.79 17.2, 38.85 14.6 C30.91 12.01, 6.37 2.52, 0.02 0.05 M-0.67 -1.02 C-0.71 -0.8, -0.73 0.22, -0.22 1.34 C0.3 2.45, -0.92 3.93, 2.4 5.67 C5.73 7.41, 14.18 9.37, 19.74 11.77 C25.31 14.17, 31.74 17.98, 35.77 20.07 C39.8 22.16, 41.29 23.82, 43.92 24.31 C46.54 24.8, 47.62 24.66, 51.51 23.01 C55.4 21.37, 62.03 17.16, 67.27 14.46 C72.52 11.77, 80.11 8.56, 82.97 6.84 C85.83 5.12, 83.82 5.26, 84.42 4.16 C85.02 3.07, 87.88 0.43, 86.54 0.25 C85.2 0.08, 82.81 0.74, 76.38 3.13 C69.95 5.52, 54.36 12.81, 47.99 14.6 C41.61 16.39, 46.07 16.4, 38.13 13.88 C30.19 11.37, 6.96 1.67, 0.36 -0.49" stroke="#000000" stroke-width="1" fill="none"></path></g></g><mask></mask><g stroke-linecap="round" transform="translate(12.068056275735216 24.03489585029115) rotate(0 42.91908006738731 17.660482707154586)"><path d="M44.75 0.46 L86.16 18.36 L41.68 36.43 L1.21 19.38" stroke="none" stroke-width="0" fill="#c6302b" fill-rule="evenodd"></path><path d="M43 0 C58.17 7.51, 70.72 13.55, 85.84 18 M43 0 C57.88 7.75, 74.22 12.83, 85.84 18 M85.84 18 C71.26 25.36, 61.98 30.02, 43 35.32 M85.84 18 C75.29 22.08, 64.4 25.84, 43 35.32 M43 35.32 C29.66 31.64, 15.9 23.52, 0 18 M43 35.32 C29.66 31.09, 16.38 25.79, 0 18 M0 18 C10.42 14.33, 18.38 10.78, 43 0 M0 18 C12.8 13.07, 24.02 8.74, 43 0" stroke="#000000" stroke-width="1" fill="none"></path></g><g stroke-linecap="round" transform="translate(11.522515966896208 10) rotate(0 42.91908006738731 17.660482707154586)"><path d="M43.32 0.36 L84.52 19.11 L44.21 36.7 L-1.68 19.81" stroke="none" stroke-width="0" fill="#c6302b" fill-rule="evenodd"></path><path d="M43 0 C55.95 7.17, 73.32 12.94, 85.84 18 M43 0 C52.36 2.94, 60.81 7.66, 85.84 18 M85.84 18 C71.85 26.11, 54.11 30.74, 43 35.32 M85.84 18 C72.75 22.33, 59.7 28.51, 43 35.32 M43 35.32 C26.3 27.7, 11.81 23.99, 0 18 M43 35.32 C27.05 30.11, 12.03 22.66, 0 18 M0 18 C12.87 12.97, 26.17 7.12, 43 0 M0 18 C8.45 14.92, 18.85 10.74, 43 0" stroke="#000000" stroke-width="1" fill="none"></path></g><g stroke-linecap="round"><g transform="translate(11.38903557434196 27.86583715723782) rotate(0 42.7496626460686 11.828416324791903)" fill-rule="evenodd"><path d="M-2.27 1.39 C-2.43 1.28, -2.77 0.12, -2.06 1.07 C-1.35 2.02, -1.43 5.12, 2 7.09 C5.44 9.06, 12.71 10.57, 18.55 12.88 C24.38 15.19, 32.79 19.55, 37.01 20.97 C41.22 22.4, 41.43 21.44, 43.82 21.46 C46.21 21.47, 47.45 22.06, 51.34 21.05 C55.24 20.04, 61.44 17.73, 67.18 15.38 C72.91 13.02, 82.63 8.87, 85.75 6.93 C88.87 4.99, 86.31 4.63, 85.89 3.73 C85.47 2.83, 84.32 1.31, 83.23 1.54 C82.13 1.78, 85.62 2.38, 79.31 5.14 C73.01 7.91, 51.73 16.72, 45.4 18.14 C39.06 19.56, 49 17.1, 41.29 13.68 C33.58 10.26, 5.99 -0.07, -0.88 -2.37" stroke="none" stroke-width="0" fill="#912626" fill-rule="evenodd"></path><path d="M0.82 0.69 C0.78 1.18, 0.56 0.88, 0.62 1.93 C0.67 2.98, -1.88 5.18, 1.15 6.99 C4.19 8.79, 12.97 10.26, 18.82 12.75 C24.67 15.25, 32.03 20.34, 36.25 21.96 C40.48 23.58, 41.67 22.41, 44.15 22.47 C46.64 22.54, 46.98 23.9, 51.17 22.36 C55.35 20.83, 63.87 15.91, 69.27 13.25 C74.67 10.6, 80.84 8.15, 83.58 6.43 C86.32 4.72, 85.49 4.17, 85.7 2.96 C85.9 1.75, 86.12 -0.92, 84.81 -0.83 C83.5 -0.74, 83.95 0.74, 77.85 3.5 C71.75 6.25, 54.57 13.8, 48.21 15.71 C41.84 17.61, 47.85 17.55, 39.65 14.93 C31.46 12.31, 5.54 2.36, -0.97 -0.03 M-0.2 0.01 C-0.43 0.69, -0.05 2.03, -0.01 2.9 C0.04 3.77, -3.18 3.45, 0.05 5.23 C3.28 7.01, 13.59 10.68, 19.38 13.58 C25.16 16.49, 30.95 20.87, 34.76 22.68 C38.57 24.5, 39.93 24.68, 42.26 24.47 C44.6 24.27, 44.36 23.46, 48.77 21.48 C53.18 19.5, 63.2 15.33, 68.72 12.59 C74.24 9.86, 78.92 6.8, 81.9 5.08 C84.87 3.37, 86.03 3.24, 86.57 2.33 C87.11 1.42, 86.8 -0.5, 85.12 -0.37 C83.43 -0.25, 82.49 0.57, 76.45 3.1 C70.4 5.62, 55.01 12.89, 48.83 14.77 C42.65 16.65, 47.68 16.94, 39.35 14.37 C31.02 11.81, 5.7 2.04, -1.15 -0.6" stroke="#000000" stroke-width="1" fill="none"></path></g></g><mask></mask><g stroke-linecap="round" transform="translate(26.883314930650158 23.400935510041904) rotate(0 9.265109600812366 4.082929654595262)"><path d="M11.04 0.14 C12.95 0.26, 15.55 0.58, 16.74 1.3 C17.92 2.01, 18.37 3.47, 18.17 4.44 C17.97 5.41, 16.86 6.5, 15.52 7.13 C14.18 7.77, 12 8.12, 10.13 8.25 C8.26 8.38, 6.01 8.34, 4.31 7.91 C2.62 7.47, 0.58 6.51, -0.05 5.63 C-0.68 4.75, -0.35 3.53, 0.51 2.6 C1.37 1.67, 3.14 0.47, 5.09 0.04 C7.05 -0.39, 11.02 -0.03, 12.23 0.03 C13.44 0.09, 12.53 0.3, 12.37 0.38 M8.37 -0.51 C10.48 -0.39, 14.14 0.92, 15.72 1.5 C17.31 2.08, 17.69 2.32, 17.88 2.97 C18.08 3.62, 17.74 4.54, 16.88 5.39 C16.01 6.24, 14.53 7.67, 12.7 8.06 C10.88 8.46, 7.75 8.04, 5.94 7.78 C4.12 7.53, 2.86 7.32, 1.81 6.52 C0.75 5.71, -0.55 3.89, -0.39 2.96 C-0.23 2.04, 1.14 1.38, 2.74 0.95 C4.34 0.52, 8.27 0.51, 9.24 0.39 C10.2 0.27, 8.52 0.3, 8.53 0.21" stroke="none" stroke-width="0" fill="#ffff"></path><path d="M7.83 0.02 C9.65 -0.14, 12.86 0.37, 14.49 0.92 C16.12 1.47, 16.99 2.5, 17.61 3.35 C18.22 4.19, 18.91 5.29, 18.19 6.02 C17.48 6.74, 15.12 7.34, 13.3 7.69 C11.49 8.05, 9.22 8.34, 7.3 8.15 C5.38 7.96, 3.07 7.27, 1.78 6.56 C0.5 5.85, -0.52 4.74, -0.41 3.92 C-0.3 3.1, 1.02 2.24, 2.45 1.64 C3.87 1.05, 7.19 0.67, 8.14 0.35 C9.09 0.02, 8.11 -0.36, 8.14 -0.31 M9.75 0.46 C11.59 0.33, 13.98 0.09, 15.45 0.72 C16.92 1.35, 18.37 3.31, 18.59 4.27 C18.8 5.22, 17.9 5.82, 16.72 6.44 C15.55 7.05, 13.45 7.86, 11.51 7.96 C9.58 8.06, 6.85 7.44, 5.12 7.04 C3.39 6.63, 1.98 6.14, 1.13 5.52 C0.29 4.9, -0.57 4.12, 0.06 3.33 C0.69 2.55, 3.17 1.35, 4.92 0.82 C6.67 0.29, 9.74 0.22, 10.57 0.17 C11.41 0.12, 9.9 0.4, 9.93 0.53" stroke="#000000" stroke-width="1" fill="none"></path></g><g stroke-linecap="round"><g transform="translate(44.01591590435555 35.78180291014496) rotate(0 8.010315916516902 0.2055727542242778)" fill-rule="evenodd"><path d="M-0.84 0.9 L12.88 3.18 L15.66 -4.53 L0.04 -0.07" stroke="none" stroke-width="0" fill="#ffff" fill-rule="evenodd"></path><path d="M0 0 C4.74 1.73, 8.07 2.8, 11.9 3.97 M0 0 C4.51 1.69, 8.63 2.7, 11.9 3.97 M11.9 3.97 C13.01 1.71, 13.99 -0.51, 16.02 -3.56 M11.9 3.97 C13.26 1.56, 14.21 -0.61, 16.02 -3.56 M16.02 -3.56 C11.04 -3.12, 5.36 -1.81, 0 0 M16.02 -3.56 C12.54 -2.8, 9.08 -2.01, 0 0 M0 0 C0 0, 0 0, 0 0 M0 0 C0 0, 0 0, 0 0" stroke="#000000" stroke-width="1" fill="none"></path></g></g><mask></mask><g stroke-linecap="round"><g transform="translate(49.88905317673516 15.392111956797521) rotate(0 4.8877379038183335 4.483370832257435)" fill-rule="evenodd"><path d="M-0.93 0.38 L2.11 4.25 L-2.42 5.85 L2.4 6.5 L4.39 10.65 L5.39 4.79 L11.75 5.74 L6.72 3.72 L7.91 -0.82 L5.08 0.41 L0.47 0.21" stroke="none" stroke-width="0" fill="#ffff" fill-rule="evenodd"></path><path d="M0 0 C0.3 0.8, 0.84 1.71, 1.48 3.26 M0 0 C0.38 0.61, 0.61 1.31, 1.48 3.26 M1.48 3.26 C-0.11 4.07, -1.26 5.02, -2.85 5.8 M1.48 3.26 C0.16 3.96, -0.9 4.75, -2.85 5.8 M-2.85 5.8 C-1.36 5.73, -0.38 6.11, 2.42 6.3 M-2.85 5.8 C-0.97 5.96, 0.85 6.04, 2.42 6.3 M2.42 6.3 C3.61 7.74, 4.57 8.8, 5.37 9.75 M2.42 6.3 C3.42 7.47, 4.19 8.59, 5.37 9.75 M5.37 9.75 C5.49 8.15, 5.99 6.36, 6.14 5.7 M5.37 9.75 C5.59 8.79, 5.75 7.92, 6.14 5.7 M6.14 5.7 C8.47 5.43, 11.1 4.7, 12.63 4.77 M6.14 5.7 C8.59 5.23, 10.98 4.97, 12.63 4.77 M12.63 4.77 C11.29 4.65, 10.57 3.85, 7.08 3.05 M12.63 4.77 C11.2 4.33, 9.68 3.82, 7.08 3.05 M7.08 3.05 C7.55 1.57, 8.29 0.35, 8.79 -0.79 M7.08 3.05 C7.73 1.62, 8.29 0.27, 8.79 -0.79 M8.79 -0.79 C8.01 -0.51, 6.89 0.08, 4.12 1.35 M8.79 -0.79 C7.71 -0.36, 6.47 0.2, 4.12 1.35 M4.12 1.35 C2.53 0.8, 0.83 0.48, 0 0 M4.12 1.35 C3.15 0.99, 2.34 0.76, 0 0 M0 0 C0 0, 0 0, 0 0 M0 0 C0 0, 0 0, 0 0" stroke="#000000" stroke-width="1" fill="none"></path></g></g><mask></mask><g stroke-linecap="round"><g transform="translate(74.20905990335223 23.066328553141716) rotate(0 0 4.0044117766222485)" fill-rule="evenodd"><path d="M-0.89 -0.68 L10.91 4.81 L-1.02 7.61 L-10.71 3.14 L0.07 0.24 L-0.5 -0.23" stroke="none" stroke-width="0" fill="#912626" fill-rule="evenodd"></path><path d="M0 0 C3.76 1.7, 6.44 3.33, 10.01 4 M0 0 C3.74 1.53, 7.52 2.94, 10.01 4 M10.01 4 C6.92 5.54, 3.7 6.74, -0.4 8.01 M10.01 4 C7.6 5.12, 4.82 6.14, -0.4 8.01 M-0.4 8.01 C-2.82 7.18, -4.13 6.37, -10.01 4 M-0.4 8.01 C-3.1 6.63, -5.72 5.68, -10.01 4 M-10.01 4 C-7.38 3.04, -4.89 1.59, 0 0 M-10.01 4 C-6.69 2.79, -2.64 0.91, 0 0 M0 0 C0 0, 0 0, 0 0 M0 0 C0 0, 0 0, 0 0 M0 0 C0 0, 0 0, 0 0 M0 0 C0 0, 0 0, 0 0" stroke="#000000" stroke-width="1" fill="none"></path></g></g><mask></mask><g stroke-linecap="round"><g transform="translate(73.17947953250405 22.824606161963175) rotate(0 0.10267722504158883 4.0044117766222485)"><path d="M0 0 C-0.19 2.64, 0.33 4.95, 0.21 8.01 M0 0 C0.07 1.96, 0.1 3.89, 0.21 8.01" stroke="#000000" stroke-width="1" fill="none"></path></g></g><mask></mask></svg>